<svg xmlns="http://www.w3.org/2000/svg" xmlns:xlink="http://www.w3.org/1999/xlink" width="1640" zoomAndPan="magnify" viewBox="0 0 1230 693.000001" height="924" preserveAspectRatio="xMidYMid meet" version="1.0"><defs><g/><clipPath id="2ddab4133f"><path d="M 0.886719 0 L 1229.113281 0 L 1229.113281 692 L 0.886719 692 Z M 0.886719 0 " clip-rule="nonzero"/></clipPath><clipPath id="f7287e1fd0"><path d="M 277 146.488281 L 318 146.488281 L 318 155 L 277 155 Z M 277 146.488281 " clip-rule="nonzero"/></clipPath><clipPath id="9bb032e62b"><path d="M 231 146.488281 L 273 146.488281 L 273 152 L 231 152 Z M 231 146.488281 " clip-rule="nonzero"/></clipPath><clipPath id="f0c0c50140"><path d="M 78.277344 289 L 85 289 L 85 330 L 78.277344 330 Z M 78.277344 289 " clip-rule="nonzero"/></clipPath><clipPath id="d476d48480"><path d="M 78.277344 317 L 82 317 L 82 358 L 78.277344 358 Z M 78.277344 317 " clip-rule="nonzero"/></clipPath><clipPath id="a94e1b8d0d"><path d="M 444 265 L 447.492188 265 L 447.492188 287 L 444 287 Z M 444 265 " clip-rule="nonzero"/></clipPath><clipPath id="ea0e7e093d"><path d="M 444 265 L 447.492188 265 L 447.492188 275 L 444 275 Z M 444 265 " clip-rule="nonzero"/></clipPath><clipPath id="b2e1533ba9"><path d="M 0.925781 0.714844 L 482 0.714844 L 482 58 L 0.925781 58 Z M 0.925781 0.714844 " clip-rule="nonzero"/></clipPath><clipPath id="8a3cc70a22"><rect x="0" width="482" y="0" height="58"/></clipPath><clipPath id="0cf125421b"><path d="M 228 56 L 858.40625 56 L 858.40625 83.394531 L 228 83.394531 Z M 228 56 " clip-rule="nonzero"/></clipPath><clipPath id="287a5eab4c"><rect x="0" width="631" y="0" height="28"/></clipPath><clipPath id="d6f52da842"><rect x="0" width="859" y="0" height="84"/></clipPath></defs><g clip-path="url(#2ddab4133f)"><path fill="#ffffff" d="M 0.886719 0 L 1229.113281 0 L 1229.113281 692 L 0.886719 692 Z M 0.886719 0 " fill-opacity="1" fill-rule="nonzero"/><path fill="#9cd69e" d="M 0.886719 0 L 1229.113281 0 L 1229.113281 692 L 0.886719 692 Z M 0.886719 0 " fill-opacity="1" fill-rule="nonzero"/></g><path fill="#2e7d32" d="M 186.953125 166.214844 C 187.277344 165.167969 187.753906 164.507812 188.378906 164.214844 L 196.796875 160.546875 C 204.699219 157.691406 215.34375 154.152344 223.4375 151.875 L 227.410156 150.960938 C 226.742188 151.222656 226.234375 151.890625 225.902344 152.976562 C 219.835938 155.082031 211.765625 157.964844 205.855469 160.46875 C 200.144531 162.046875 192.535156 164.222656 186.953125 166.214844 " fill-opacity="1" fill-rule="nonzero"/><path fill="#2e7d32" d="M 147.527344 190.777344 C 147.769531 189.996094 148.097656 189.4375 148.519531 189.09375 L 148.660156 188.980469 C 164.574219 177.101562 164.878906 176.875 173.824219 171.742188 L 182.652344 166.992188 C 182.050781 167.292969 181.59375 167.949219 181.28125 168.960938 C 175.808594 172.449219 168.535156 177.164062 163.300781 181 C 158.492188 183.808594 152.105469 187.609375 147.527344 190.777344 " fill-opacity="1" fill-rule="nonzero"/><path fill="#2e7d32" d="M 440.804688 256.46875 L 440.96875 256.585938 L 444.652344 265.46875 L 440.804688 256.46875 " fill-opacity="1" fill-rule="nonzero"/><path fill="#2e7d32" d="M 428.820312 235.589844 C 428.882812 235.394531 428.976562 235.273438 429.09375 235.226562 C 432.230469 240.519531 436.359375 247.613281 439.171875 253.082031 L 444.652344 265.46875 L 438.957031 253.375 C 436.003906 247.988281 432.023438 240.832031 428.820312 235.589844 " fill-opacity="1" fill-rule="nonzero"/><path fill="#2e7d32" d="M 399.421875 200.488281 C 399.558594 200.039062 399.769531 199.761719 400.046875 199.65625 C 404.304688 203.890625 409.945312 209.585938 413.949219 214.058594 C 417.554688 218.796875 422.332031 225.140625 425.703125 230.046875 C 425.5625 230.105469 425.449219 230.246094 425.378906 230.476562 C 421.765625 225.855469 416.898438 219.71875 413 215.335938 C 408.996094 210.820312 403.625 204.820312 399.421875 200.488281 " fill-opacity="1" fill-rule="nonzero"/><path fill="#2e7d32" d="M 363.1875 173.789062 C 363.394531 173.117188 363.707031 172.703125 364.125 172.539062 C 369.257812 175.625 376.082031 179.789062 381.027344 183.164062 C 385.476562 186.796875 391.378906 191.691406 395.632812 195.550781 C 395.335938 195.667969 395.113281 195.964844 394.964844 196.445312 C 390.378906 193.003906 384.226562 188.457031 379.421875 185.328125 C 374.605469 181.785156 368.164062 177.101562 363.1875 173.789062 " fill-opacity="1" fill-rule="nonzero"/><path fill="#2e7d32" d="M 321.964844 156.257812 C 322.230469 155.398438 322.628906 154.867188 323.160156 154.660156 C 328.921875 156.492188 336.597656 158.996094 342.238281 161.171875 C 347.296875 163.601562 354.023438 166.898438 358.9375 169.617188 C 358.503906 169.789062 358.179688 170.21875 357.964844 170.917969 C 352.644531 168.742188 345.523438 165.898438 340.070312 164.085938 C 334.679688 161.640625 327.472656 158.417969 321.964844 156.257812 " fill-opacity="1" fill-rule="nonzero"/><g clip-path="url(#f7287e1fd0)"><path fill="#2e7d32" d="M 277.609375 148.644531 C 277.914062 147.648438 278.378906 147.035156 278.996094 146.796875 C 284.96875 147.269531 292.9375 147.933594 298.871094 148.769531 L 299.691406 148.902344 C 305.042969 150.023438 312.175781 151.566406 317.441406 153.027344 C 316.902344 153.234375 316.492188 153.777344 316.222656 154.660156 C 310.410156 153.832031 302.644531 152.792969 296.789062 152.363281 C 291.058594 151.132812 283.402344 149.539062 277.609375 148.644531 " fill-opacity="1" fill-rule="nonzero"/></g><g clip-path="url(#9bb032e62b)"><path fill="#2e7d32" d="M 231.957031 151.726562 C 232.289062 150.644531 232.796875 149.980469 233.460938 149.71875 L 241.328125 148.367188 C 245.90625 147.882812 251.996094 147.058594 256.589844 146.757812 L 262.21875 146.480469 L 272.992188 146.546875 C 272.367188 146.789062 271.894531 147.410156 271.585938 148.425781 C 265.527344 149.023438 257.441406 149.894531 251.433594 150.910156 C 245.585938 151.015625 237.785156 151.222656 231.957031 151.726562 " fill-opacity="1" fill-rule="nonzero"/></g><path fill="#2e7d32" d="M 116.234375 223.121094 C 116.378906 222.648438 116.5625 222.261719 116.78125 221.96875 C 119.824219 218.253906 123.765625 213.203125 126.960938 209.621094 C 131.902344 204.527344 138.574219 197.8125 143.820312 193.039062 C 143.429688 193.378906 143.121094 193.917969 142.890625 194.660156 C 138.449219 199.183594 132.574219 205.265625 128.414062 210.050781 C 124.65625 213.875 119.695312 219.03125 116.234375 223.121094 " fill-opacity="1" fill-rule="nonzero"/><path fill="#2e7d32" d="M 440.628906 257.074219 C 440.613281 256.9375 440.605469 256.828125 440.609375 256.738281 L 444.652344 265.46875 L 440.628906 257.074219 " fill-opacity="1" fill-rule="nonzero"/><path fill="#2e7d32" d="M 415.410156 220.316406 C 415.324219 219.554688 415.289062 218.914062 415.3125 218.40625 C 419.035156 222.898438 423.960938 228.9375 427.390625 233.65625 C 430.589844 238.875 434.816406 245.859375 437.769531 251.222656 C 437.761719 251.367188 437.769531 251.554688 437.796875 251.773438 C 434.824219 247.015625 430.8125 240.691406 427.519531 236.152344 C 423.957031 231.347656 417.71875 225.832031 415.410156 220.316406 " fill-opacity="1" fill-rule="nonzero"/><path fill="#2e7d32" d="M 382.414062 191.34375 C 382.265625 190.007812 382.207031 188.898438 382.246094 188.007812 C 386.90625 191.257812 393.089844 195.648438 397.523438 199.203125 C 401.730469 203.546875 407.316406 209.371094 411.328125 213.898438 C 411.304688 214.460938 411.339844 215.164062 411.433594 216.007812 C 407.4375 212.503906 402.058594 207.875 397.804688 204.6875 C 393.242188 200.621094 385.332031 196.710938 382.414062 191.34375 " fill-opacity="1" fill-rule="nonzero"/><path fill="#2e7d32" d="M 343.488281 170.835938 C 343.285156 169.015625 343.210938 167.496094 343.257812 166.28125 C 348.605469 168.21875 355.722656 170.867188 360.925781 173.164062 C 365.914062 176.519531 372.542969 181.03125 377.371094 184.605469 C 377.332031 185.546875 377.390625 186.710938 377.550781 188.117188 C 372.746094 185.933594 366.304688 183.074219 361.34375 181.277344 C 356.03125 178.074219 348.925781 173.828125 343.488281 170.835938 " fill-opacity="1" fill-rule="nonzero"/><path fill="#2e7d32" d="M 300.488281 159.492188 C 300.238281 157.28125 300.148438 155.445312 300.210938 153.96875 C 305.996094 154.53125 313.714844 155.34375 319.449219 156.300781 C 324.976562 158.542969 332.332031 161.578125 337.742188 164.089844 C 337.6875 165.34375 337.765625 166.910156 337.980469 168.789062 C 332.601562 167.976562 325.40625 166.96875 319.980469 166.578125 C 314.167969 164.363281 306.398438 161.449219 300.488281 159.492188 " fill-opacity="1" fill-rule="nonzero"/><path fill="#2e7d32" d="M 255.257812 158 C 254.976562 155.523438 254.875 153.460938 254.945312 151.808594 C 260.925781 150.933594 268.917969 149.824219 274.945312 149.363281 C 280.773438 150.363281 288.535156 151.753906 294.289062 153.082031 C 294.230469 154.585938 294.320312 156.460938 294.578125 158.714844 C 288.855469 159.324219 281.222656 160.21875 275.558594 161.257812 C 269.488281 160.167969 261.378906 158.761719 255.257812 158 " fill-opacity="1" fill-rule="nonzero"/><path fill="#2e7d32" d="M 209.640625 167.046875 C 209.34375 164.441406 209.238281 162.277344 209.308594 160.535156 C 215.242188 158.171875 223.183594 155.074219 229.265625 153.113281 C 235.136719 152.742188 242.980469 152.304688 248.867188 152.324219 C 248.796875 153.992188 248.902344 156.078125 249.183594 158.578125 C 243.355469 160.652344 235.601562 163.496094 229.925781 165.957031 C 223.832031 166.148438 215.707031 166.460938 209.640625 167.046875 " fill-opacity="1" fill-rule="nonzero"/><path fill="#2e7d32" d="M 166.621094 186.714844 C 166.328125 184.136719 166.21875 181.996094 166.292969 180.273438 C 171.640625 176.539062 178.816406 171.609375 184.398438 168.230469 C 190.03125 166.382812 197.570312 163.984375 203.324219 162.550781 C 203.25 164.296875 203.359375 166.46875 203.65625 169.078125 C 198 172.613281 190.488281 177.394531 185.070312 181.28125 C 179.496094 182.773438 172.074219 184.828125 166.621094 186.714844 " fill-opacity="1" fill-rule="nonzero"/><path fill="#2e7d32" d="M 131.074219 214.628906 C 130.800781 212.234375 130.703125 210.238281 130.769531 208.640625 C 135.0625 203.921875 140.835938 197.667969 145.402344 193.21875 C 150.039062 190.203125 156.261719 186.238281 161.117188 183.585938 C 161.042969 185.296875 161.148438 187.425781 161.4375 189.988281 C 156.726562 194.605469 150.488281 200.808594 146.046875 205.6875 C 141.480469 208.242188 135.417969 211.710938 131.074219 214.628906 " fill-opacity="1" fill-rule="nonzero"/><path fill="#2e7d32" d="M 104.035156 248.953125 C 103.796875 246.867188 103.710938 245.132812 103.769531 243.738281 C 106.910156 238.308594 111.148438 231.09375 114.59375 225.847656 C 118.113281 221.882812 122.863281 216.632812 126.679688 212.953125 C 126.613281 214.527344 126.714844 216.496094 126.976562 218.855469 C 123.339844 224.246094 118.527344 231.460938 115.167969 237.023438 C 111.722656 240.5 107.167969 245.191406 104.035156 248.953125 " fill-opacity="1" fill-rule="nonzero"/><path fill="#2e7d32" d="M 86.257812 287.917969 C 86.070312 286.257812 86.003906 284.878906 86.050781 283.769531 C 87.9375 277.890625 90.511719 270.058594 92.71875 264.289062 C 95.046875 259.585938 98.210938 253.332031 100.871094 248.808594 C 100.8125 250.164062 100.898438 251.859375 101.125 253.890625 C 98.648438 259.753906 95.394531 267.601562 93.199219 273.578125 C 90.992188 277.816406 88.109375 283.507812 86.257812 287.917969 " fill-opacity="1" fill-rule="nonzero"/><g clip-path="url(#f0c0c50140)"><path fill="#2e7d32" d="M 78.5 329.777344 C 78.375 328.640625 78.324219 327.691406 78.355469 326.929688 L 78.476562 324.941406 L 79.277344 315.886719 L 80.925781 304.433594 C 81.917969 299.894531 83.191406 293.828125 84.433594 289.355469 C 84.390625 290.421875 84.457031 291.746094 84.636719 293.34375 C 83.414062 299.40625 81.828125 307.503906 80.894531 313.617188 C 80.050781 318.449219 78.988281 324.902344 78.5 329.777344 " fill-opacity="1" fill-rule="nonzero"/></g><path fill="#2e7d32" d="M 429.371094 240.410156 C 429.347656 240.308594 429.324219 240.207031 429.300781 240.105469 C 429.164062 239.496094 429.050781 238.9375 428.960938 238.441406 C 432.085938 243.050781 436.191406 249.238281 438.988281 254.050781 L 444.652344 265.46875 L 439.3125 255.617188 C 436.40625 251.003906 431.589844 245.390625 429.371094 240.410156 " fill-opacity="1" fill-rule="nonzero"/><path fill="#2e7d32" d="M 400.683594 211.554688 C 400.628906 211.320312 400.578125 211.089844 400.523438 210.863281 C 400.207031 209.453125 399.949219 208.175781 399.75 207.039062 C 403.859375 210.308594 409.296875 214.730469 413.144531 218.304688 C 416.933594 222.910156 421.957031 229.078125 425.546875 233.839844 C 425.648438 234.425781 425.78125 235.078125 425.945312 235.804688 C 425.972656 235.917969 426 236.039062 426.027344 236.160156 C 422.691406 232.753906 418.191406 228.246094 414.566406 225.148438 C 410.449219 221.023438 403.597656 216.605469 400.683594 211.554688 " fill-opacity="1" fill-rule="nonzero"/><path fill="#2e7d32" d="M 365.078125 190.355469 C 364.996094 190.007812 364.914062 189.660156 364.839844 189.320312 C 364.359375 187.210938 363.976562 185.300781 363.675781 183.597656 C 368.527344 185.488281 374.984375 188.078125 379.664062 190.355469 C 384.414062 194.222656 390.71875 199.410156 395.3125 203.453125 C 395.527344 204.671875 395.804688 206.039062 396.144531 207.546875 C 396.203125 207.789062 396.257812 208.039062 396.316406 208.289062 C 392.105469 206.246094 386.453125 203.582031 382.070312 201.945312 C 377.007812 198.417969 368.613281 195.414062 365.078125 190.355469 " fill-opacity="1" fill-rule="nonzero"/><path fill="#2e7d32" d="M 324.375 177.378906 C 324.273438 176.929688 324.171875 176.492188 324.070312 176.054688 C 323.460938 173.363281 322.96875 170.933594 322.589844 168.757812 C 327.945312 169.242188 335.09375 169.960938 340.398438 170.871094 C 345.859375 173.875 353.125 177.910156 358.472656 181.117188 C 358.78125 182.890625 359.183594 184.875 359.679688 187.070312 C 359.761719 187.425781 359.84375 187.785156 359.925781 188.148438 C 355.058594 187.507812 348.550781 186.722656 343.644531 186.515625 C 337.890625 183.710938 330.207031 180.003906 324.375 177.378906 " fill-opacity="1" fill-rule="nonzero"/><path fill="#2e7d32" d="M 280.40625 173.175781 C 280.285156 172.660156 280.167969 172.148438 280.054688 171.640625 C 279.347656 168.515625 278.773438 165.691406 278.332031 163.167969 C 283.964844 162.230469 291.496094 161.042969 297.183594 160.53125 C 303.117188 162.523438 311.019531 165.222656 316.859375 167.46875 C 317.25 169.699219 317.753906 172.1875 318.378906 174.949219 C 318.476562 175.394531 318.582031 175.847656 318.691406 176.300781 C 313.386719 177.082031 306.320312 178.1875 301.09375 179.367188 C 294.910156 177.433594 286.65625 174.890625 280.40625 173.175781 " fill-opacity="1" fill-rule="nonzero"/><path fill="#2e7d32" d="M 234.992188 178.320312 C 234.863281 177.757812 234.734375 177.203125 234.609375 176.652344 C 233.84375 173.265625 233.222656 170.203125 232.738281 167.464844 C 238.429688 165.097656 246.042969 161.996094 251.878906 160.019531 C 258.027344 160.847656 266.222656 162.007812 272.316406 163.15625 C 272.765625 165.71875 273.347656 168.582031 274.066406 171.753906 C 274.183594 172.265625 274.304688 172.785156 274.421875 173.308594 C 268.914062 175.5 261.589844 178.480469 256.234375 181.019531 C 249.875 180.109375 241.386719 178.941406 234.992188 178.320312 " fill-opacity="1" fill-rule="nonzero"/><path fill="#2e7d32" d="M 190.042969 193.320312 C 189.910156 192.75 189.78125 192.183594 189.65625 191.621094 C 188.875 188.171875 188.238281 185.050781 187.75 182.261719 C 193.242188 178.464844 200.605469 173.453125 206.320312 170.003906 C 212.421875 169.511719 220.570312 168.917969 226.6875 168.816406 C 227.171875 171.570312 227.796875 174.648438 228.570312 178.058594 C 228.691406 178.613281 228.820312 179.167969 228.953125 179.734375 C 223.464844 183.308594 216.171875 188.125 210.882812 191.984375 C 204.625 192.269531 196.277344 192.699219 190.042969 193.320312 " fill-opacity="1" fill-rule="nonzero"/><path fill="#2e7d32" d="M 150.492188 216.757812 C 150.363281 216.210938 150.238281 215.667969 150.117188 215.132812 C 149.371094 211.820312 148.761719 208.828125 148.292969 206.152344 C 152.835938 201.332031 158.945312 194.941406 163.757812 190.386719 C 169.210938 188.625 176.511719 186.34375 182.078125 184.972656 C 182.566406 187.753906 183.199219 190.871094 183.980469 194.316406 C 184.105469 194.875 184.234375 195.441406 184.367188 196.007812 C 179.445312 200.730469 172.921875 207.0625 168.246094 212.023438 C 162.890625 213.324219 155.753906 215.105469 150.492188 216.757812 " fill-opacity="1" fill-rule="nonzero"/><path fill="#2e7d32" d="M 118.898438 246.507812 C 118.785156 246.015625 118.671875 245.527344 118.5625 245.042969 C 117.890625 242.0625 117.34375 239.371094 116.917969 236.964844 C 120.398438 231.433594 125.082031 224.085938 128.835938 218.738281 C 133.199219 215.953125 139.070312 212.300781 143.648438 209.882812 C 144.113281 212.53125 144.714844 215.488281 145.453125 218.769531 C 145.574219 219.296875 145.695312 219.835938 145.828125 220.378906 C 141.894531 225.835938 136.683594 233.144531 132.992188 238.765625 C 128.699219 240.964844 122.996094 243.957031 118.898438 246.507812 " fill-opacity="1" fill-rule="nonzero"/><path fill="#2e7d32" d="M 96.046875 280.945312 C 95.953125 280.535156 95.859375 280.128906 95.769531 279.722656 C 95.207031 277.238281 94.75 274.992188 94.398438 272.980469 C 96.71875 267.027344 99.867188 259.101562 102.46875 253.261719 C 105.640625 249.628906 109.929688 244.824219 113.402344 241.484375 C 113.820312 243.84375 114.355469 246.484375 115.015625 249.40625 C 115.125 249.882812 115.234375 250.359375 115.347656 250.847656 C 112.480469 256.726562 108.695312 264.589844 106.0625 270.582031 C 102.953125 273.585938 98.847656 277.652344 96.046875 280.945312 " fill-opacity="1" fill-rule="nonzero"/><path fill="#2e7d32" d="M 82.722656 318.453125 C 82.648438 318.144531 82.578125 317.839844 82.511719 317.539062 C 82.09375 315.679688 81.75 314.003906 81.488281 312.5 C 82.566406 306.398438 84.050781 298.269531 85.414062 292.222656 C 87.300781 287.917969 89.871094 282.191406 92.113281 278.0625 C 92.457031 280.011719 92.898438 282.1875 93.445312 284.597656 C 93.53125 284.988281 93.621094 285.382812 93.714844 285.785156 C 91.992188 291.792969 89.734375 299.816406 88.253906 305.890625 C 86.460938 309.597656 84.132812 314.582031 82.722656 318.453125 " fill-opacity="1" fill-rule="nonzero"/><g clip-path="url(#d476d48480)"><path fill="#2e7d32" d="M 79.699219 357.394531 C 79.65625 357.210938 79.609375 357.03125 79.566406 356.847656 C 79.316406 355.730469 79.113281 354.71875 78.953125 353.816406 C 78.6875 347.84375 78.390625 339.867188 78.433594 333.886719 C 78.941406 329.082031 79.667969 322.671875 80.539062 317.917969 C 80.789062 319.34375 81.109375 320.9375 81.511719 322.703125 C 81.574219 322.988281 81.644531 323.277344 81.710938 323.570312 C 81.210938 329.429688 80.585938 337.25 80.347656 343.125 C 80.019531 347.398438 79.65625 353.109375 79.699219 357.394531 " fill-opacity="1" fill-rule="nonzero"/></g><path fill="#2e7d32" d="M 441.128906 259.226562 C 441.054688 258.960938 440.980469 258.710938 440.921875 258.476562 L 444.652344 265.46875 L 441.128906 259.226562 " fill-opacity="1" fill-rule="nonzero"/><path fill="#2e7d32" d="M 418.265625 232.566406 C 417.824219 231.058594 417.421875 229.628906 417.070312 228.289062 C 420.503906 231.472656 425.035156 235.785156 428.167969 239.261719 C 431.273438 243.65625 435.382812 249.539062 438.277344 254.074219 C 438.378906 254.464844 438.496094 254.875 438.621094 255.3125 C 436.0625 252.074219 432.601562 247.777344 429.722656 244.824219 C 426.335938 241.101562 420.816406 236.90625 418.265625 232.566406 " fill-opacity="1" fill-rule="nonzero"/><path fill="#2e7d32" d="M 387.398438 212.695312 C 386.625 210.070312 385.925781 207.578125 385.3125 205.234375 C 389.546875 206.984375 395.179688 209.390625 399.230469 211.53125 C 403.488281 215.464844 409.148438 220.730469 413.269531 224.804688 C 413.660156 226.285156 414.101562 227.867188 414.589844 229.527344 C 411.082031 227.664062 406.351562 225.226562 402.652344 223.777344 C 398.105469 220.410156 390.695312 217.292969 387.398438 212.695312 " fill-opacity="1" fill-rule="nonzero"/><path fill="#2e7d32" d="M 350.296875 200 C 349.242188 196.410156 348.285156 193.003906 347.445312 189.808594 C 352.261719 190.136719 358.6875 190.644531 363.453125 191.40625 C 368.632812 194.753906 375.519531 199.242188 380.597656 202.738281 C 381.246094 205.199219 381.980469 207.824219 382.792969 210.589844 C 378.523438 210.117188 372.808594 209.554688 368.515625 209.511719 C 363.070312 206.617188 355.800781 202.777344 350.296875 200 " fill-opacity="1" fill-rule="nonzero"/><path fill="#2e7d32" d="M 308.742188 194.855469 C 307.460938 190.503906 306.308594 186.375 305.285156 182.496094 C 310.46875 181.433594 317.402344 180.074219 322.652344 179.414062 C 328.503906 182.039062 336.289062 185.566406 342.0625 188.363281 C 342.929688 191.660156 343.910156 195.171875 345 198.875 C 340.191406 199.785156 333.785156 201.066406 329.066406 202.359375 C 322.988281 200.058594 314.871094 197.011719 308.742188 194.855469 " fill-opacity="1" fill-rule="nonzero"/><path fill="#2e7d32" d="M 219.367188 208.746094 C 217.859375 203.613281 216.496094 198.742188 215.292969 194.175781 C 220.617188 190.421875 227.75 185.457031 233.265625 181.992188 C 239.683594 182.6875 248.234375 183.664062 254.613281 184.632812 C 255.773438 189.023438 257.082031 193.699219 258.53125 198.628906 C 253.292969 202.152344 246.339844 206.894531 241.28125 210.664062 C 234.714844 210 225.953125 209.152344 219.367188 208.746094 " fill-opacity="1" fill-rule="nonzero"/><path fill="#2e7d32" d="M 176.246094 227.957031 C 174.75 222.882812 173.402344 218.066406 172.210938 213.546875 C 177.003906 208.667969 183.433594 202.199219 188.464844 197.570312 C 194.710938 197.0625 203.054688 196.445312 209.324219 196.261719 C 210.53125 200.839844 211.894531 205.71875 213.410156 210.863281 C 208.292969 215.535156 201.507812 221.808594 196.605469 226.699219 C 190.488281 226.984375 182.335938 227.402344 176.246094 227.957031 " fill-opacity="1" fill-rule="nonzero"/><path fill="#2e7d32" d="M 140.027344 252.996094 C 138.636719 248.273438 137.382812 243.792969 136.277344 239.589844 C 140.097656 234.03125 145.234375 226.640625 149.285156 221.25 C 154.570312 219.753906 161.632812 217.816406 167 216.65625 C 168.179688 221.148438 169.523438 225.933594 171.007812 230.980469 C 166.757812 236.355469 161.117188 243.550781 157.0625 249.078125 C 151.929688 250.144531 145.085938 251.613281 140.027344 252.996094 " fill-opacity="1" fill-rule="nonzero"/><path fill="#2e7d32" d="M 111.820312 282.316406 C 110.613281 278.210938 109.523438 274.316406 108.5625 270.65625 C 111.335938 264.714844 115.074219 256.8125 118.078125 250.980469 C 122.21875 248.605469 127.785156 245.488281 132.105469 243.457031 C 133.199219 247.601562 134.433594 252.019531 135.800781 256.671875 C 132.515625 262.414062 128.152344 270.089844 125.050781 275.9375 C 121.027344 277.734375 115.671875 280.179688 111.820312 282.316406 " fill-opacity="1" fill-rule="nonzero"/><path fill="#2e7d32" d="M 92.457031 314.476562 C 91.496094 311.207031 90.628906 308.109375 89.859375 305.195312 C 91.503906 299.164062 93.738281 291.132812 95.613281 285.167969 C 98.484375 282.035156 102.375 277.902344 105.539062 275.074219 C 106.484375 278.640625 107.546875 282.445312 108.722656 286.453125 C 106.46875 292.261719 103.480469 300.019531 101.40625 305.898438 C 98.621094 308.363281 94.941406 311.707031 92.457031 314.476562 " fill-opacity="1" fill-rule="nonzero"/><path fill="#2e7d32" d="M 82.761719 348.035156 C 82.097656 345.789062 81.5 343.660156 80.976562 341.65625 C 81.398438 335.816406 82.007812 328.027344 82.683594 322.210938 C 84.175781 318.476562 86.226562 313.511719 88.097656 309.957031 C 88.835938 312.757812 89.671875 315.738281 90.597656 318.878906 C 89.441406 324.472656 87.929688 331.941406 86.980469 337.570312 C 85.570312 340.652344 83.765625 344.804688 82.761719 348.035156 " fill-opacity="1" fill-rule="nonzero"/><path fill="#2e7d32" d="M 83.5625 381.550781 C 83.246094 380.472656 82.957031 379.453125 82.707031 378.492188 C 81.8125 373.113281 80.671875 365.925781 80.074219 360.503906 C 80.097656 356.316406 80.175781 350.722656 80.578125 346.558594 C 81.070312 348.425781 81.628906 350.417969 82.246094 352.519531 C 82.269531 357.636719 82.332031 364.464844 82.613281 369.574219 C 82.765625 373.175781 83.042969 377.988281 83.5625 381.550781 " fill-opacity="1" fill-rule="nonzero"/><path fill="#2e7d32" d="M 84.984375 387.945312 L 84.160156 384.878906 L 83.773438 383.320312 C 83.988281 384.136719 84.234375 385.003906 84.5 385.917969 L 86 391.472656 C 85.691406 390.414062 85.277344 389.003906 84.984375 387.945312 " fill-opacity="1" fill-rule="nonzero"/><path fill="#2e7d32" d="M 432.136719 249.84375 C 431.785156 248.789062 431.457031 247.769531 431.152344 246.789062 C 433.84375 249.800781 437.375 253.875 439.738281 257.140625 L 444.652344 265.46875 L 440.527344 259.582031 C 438.0625 256.617188 434.09375 253.171875 432.136719 249.84375 " fill-opacity="1" fill-rule="nonzero"/><path fill="#2e7d32" d="M 407.03125 233.222656 C 406.226562 230.800781 405.472656 228.457031 404.769531 226.210938 C 408.332031 227.75 413.066406 229.878906 416.425781 231.820312 C 419.980469 235.339844 424.703125 240.042969 428.128906 243.6875 C 428.488281 244.84375 428.875 246.042969 429.289062 247.289062 C 426.539062 245.707031 422.820312 243.652344 419.867188 242.492188 C 416.042969 239.679688 409.871094 237.03125 407.03125 233.222656 " fill-opacity="1" fill-rule="nonzero"/><path fill="#2e7d32" d="M 374.582031 222.796875 C 373.375 219.167969 372.242188 215.660156 371.195312 212.300781 C 375.410156 212.429688 381.042969 212.671875 385.222656 213.242188 C 389.890625 216.421875 396.101562 220.679688 400.6875 223.972656 C 401.4375 226.375 402.25 228.886719 403.109375 231.476562 C 399.5 231.273438 394.660156 231.082031 391.054688 231.3125 C 386.125 228.734375 378.214844 227.007812 374.582031 222.796875 " fill-opacity="1" fill-rule="nonzero"/><path fill="#2e7d32" d="M 336.496094 218.738281 C 334.957031 214.113281 333.515625 209.640625 332.175781 205.355469 C 336.859375 204.140625 343.128906 202.578125 347.898438 201.753906 C 353.433594 204.480469 360.8125 208.128906 366.292969 210.96875 C 367.382812 214.46875 368.558594 218.117188 369.8125 221.886719 C 365.5625 223.035156 359.902344 224.640625 355.761719 226.136719 C 349.992188 223.890625 342.292969 220.90625 336.496094 218.738281 " fill-opacity="1" fill-rule="nonzero"/><path fill="#2e7d32" d="M 294.480469 221.214844 C 292.695312 215.84375 291.019531 210.648438 289.464844 205.671875 C 294.4375 203.175781 301.09375 199.890625 306.214844 197.714844 C 312.371094 199.84375 320.574219 202.707031 326.683594 204.972656 C 328.054688 209.367188 329.535156 213.945312 331.109375 218.6875 C 326.425781 221.105469 320.210938 224.382812 315.683594 227.074219 C 309.332031 225.28125 300.859375 222.902344 294.480469 221.214844 " fill-opacity="1" fill-rule="nonzero"/><path fill="#2e7d32" d="M 250.25 230.394531 C 248.3125 224.570312 246.496094 218.941406 244.816406 213.539062 C 249.890625 209.835938 256.691406 204.933594 261.945312 201.476562 C 268.460938 202.855469 277.140625 204.714844 283.613281 206.273438 C 285.191406 211.328125 286.890625 216.59375 288.703125 222.042969 C 283.789062 225.621094 277.261719 230.429688 272.503906 234.21875 C 265.835938 233.011719 256.941406 231.4375 250.25 230.394531 " fill-opacity="1" fill-rule="nonzero"/><path fill="#2e7d32" d="M 205.597656 246.398438 C 203.625 240.464844 201.769531 234.726562 200.054688 229.222656 C 205.03125 224.410156 211.695312 218.015625 216.855469 213.398438 C 223.457031 213.84375 232.253906 214.480469 238.832031 215.171875 C 240.527344 220.601562 242.355469 226.265625 244.300781 232.125 C 239.332031 236.734375 232.730469 242.90625 227.910156 247.667969 C 221.21875 247.222656 212.296875 246.652344 205.597656 246.398438 " fill-opacity="1" fill-rule="nonzero"/><path fill="#2e7d32" d="M 132.316406 292.300781 C 130.613281 287.179688 129.015625 282.226562 127.539062 277.484375 C 130.742188 271.6875 135.050781 263.96875 138.4375 258.277344 C 143.476562 257.019531 150.214844 255.398438 155.324219 254.441406 C 156.949219 259.664062 158.707031 265.105469 160.578125 270.738281 C 156.910156 276.335938 152.035156 283.8125 148.507812 289.5 C 143.632812 290.246094 137.136719 291.277344 132.316406 292.300781 " fill-opacity="1" fill-rule="nonzero"/><path fill="#2e7d32" d="M 107.246094 319.167969 C 105.828125 314.894531 104.492188 310.761719 103.257812 306.800781 C 105.449219 300.972656 108.402344 293.210938 110.773438 287.453125 C 114.628906 285.464844 119.808594 282.878906 123.820312 281.230469 C 125.273438 285.886719 126.835938 290.742188 128.507812 295.769531 C 125.757812 301.351562 122.101562 308.804688 119.476562 314.445312 C 115.769531 315.753906 110.828125 317.535156 107.246094 319.167969 " fill-opacity="1" fill-rule="nonzero"/><path fill="#2e7d32" d="M 91.085938 347 C 90.027344 343.804688 89.027344 340.722656 88.105469 337.761719 C 89.195312 332.179688 90.6875 324.746094 91.964844 319.203125 C 94.480469 316.589844 97.898438 313.148438 100.703125 310.839844 C 101.902344 314.679688 103.191406 318.6875 104.570312 322.832031 C 102.804688 328.121094 100.46875 335.175781 98.839844 340.507812 C 96.421875 342.34375 93.222656 344.847656 91.085938 347 " fill-opacity="1" fill-rule="nonzero"/><path fill="#2e7d32" d="M 84.726562 374.574219 C 84.089844 372.652344 83.492188 370.792969 82.9375 369.015625 C 82.824219 363.949219 82.730469 357.191406 82.859375 352.125 C 83.910156 349.011719 85.371094 344.867188 86.828125 341.921875 C 87.707031 344.734375 88.652344 347.667969 89.660156 350.699219 C 88.957031 355.441406 88.03125 361.765625 87.503906 366.527344 C 86.523438 368.886719 85.289062 372.082031 84.726562 374.574219 " fill-opacity="1" fill-rule="nonzero"/><path fill="#2e7d32" d="M 87.953125 397.65625 C 87.574219 396.5 87.074219 394.957031 86.703125 393.796875 L 86.40625 392.824219 L 84.289062 384.789062 C 83.789062 381.300781 83.164062 376.636719 83.042969 373.113281 C 83.550781 374.726562 84.089844 376.40625 84.667969 378.148438 C 85.101562 382.117188 85.699219 387.40625 86.398438 391.335938 C 86.855469 393.234375 87.34375 395.800781 87.953125 397.65625 " fill-opacity="1" fill-rule="nonzero"/><path fill="#2e7d32" d="M 442.1875 262.398438 C 442.0625 262.0625 441.945312 261.730469 441.835938 261.410156 L 444.652344 265.46875 L 442.1875 262.398438 " fill-opacity="1" fill-rule="nonzero"/><path fill="#2e7d32" d="M 424.261719 250.59375 C 423.570312 248.679688 422.910156 246.8125 422.277344 244.988281 C 425.050781 246.238281 428.730469 247.992188 431.28125 249.652344 C 433.875 252.386719 437.324219 256.042969 439.78125 258.902344 C 439.964844 259.429688 440.152344 259.96875 440.355469 260.519531 C 438.488281 259.304688 435.941406 257.71875 433.859375 256.933594 C 430.996094 255.007812 426.414062 253.289062 424.261719 250.59375 " fill-opacity="1" fill-rule="nonzero"/><path fill="#2e7d32" d="M 397.847656 244.125 C 396.644531 240.796875 395.488281 237.53125 394.390625 234.359375 C 397.894531 234.21875 402.585938 234.09375 406.082031 234.394531 C 409.980469 237.023438 415.175781 240.535156 419.019531 243.246094 C 419.714844 245.253906 420.445312 247.320312 421.207031 249.429688 C 418.359375 249.574219 414.550781 249.859375 411.753906 250.421875 C 407.585938 248.527344 402.027344 246.003906 397.847656 244.125 " fill-opacity="1" fill-rule="nonzero"/><path fill="#2e7d32" d="M 364.566406 242.917969 C 362.921875 238.371094 361.34375 233.917969 359.84375 229.582031 C 363.925781 228.152344 369.394531 226.289062 373.585938 225.222656 C 378.566406 227.648438 385.203125 230.894531 390.152344 233.386719 C 391.308594 236.726562 392.523438 240.160156 393.789062 243.664062 C 390.199219 245.132812 385.433594 247.15625 381.980469 248.925781 C 376.757812 247.121094 369.792969 244.710938 364.566406 242.917969 " fill-opacity="1" fill-rule="nonzero"/><path fill="#2e7d32" d="M 283.90625 255.984375 C 281.671875 249.800781 279.527344 243.75 277.488281 237.851562 C 282.238281 234.125 288.59375 229.175781 293.503906 225.660156 C 299.898438 227.324219 308.421875 229.5625 314.792969 231.324219 C 316.644531 236.683594 318.59375 242.191406 320.625 247.808594 C 316.132812 251.527344 310.160156 256.519531 305.800781 260.402344 C 299.238281 259.054688 290.484375 257.269531 283.90625 255.984375 " fill-opacity="1" fill-rule="nonzero"/><path fill="#2e7d32" d="M 196.421875 288.648438 C 194.097656 282.21875 191.867188 275.917969 189.746094 269.789062 C 194.191406 264.390625 200.148438 257.21875 204.761719 251.964844 C 211.460938 252.285156 220.398438 252.742188 227.085938 253.242188 C 229.238281 259.457031 231.496094 265.835938 233.851562 272.351562 C 229.132812 277.636719 222.855469 284.703125 218.265625 290.097656 C 211.714844 289.625 202.980469 289.011719 196.421875 288.648438 " fill-opacity="1" fill-rule="nonzero"/><path fill="#2e7d32" d="M 158.800781 309.449219 C 156.636719 303.46875 154.5625 297.609375 152.585938 291.902344 C 156.21875 286.265625 161.085938 278.761719 164.859375 273.214844 C 170.726562 272.945312 178.554688 272.625 184.429688 272.558594 C 186.535156 278.652344 188.753906 284.914062 191.066406 291.308594 C 187.035156 296.78125 181.679688 304.097656 177.757812 309.648438 C 172.070312 309.53125 164.488281 309.398438 158.800781 309.449219 " fill-opacity="1" fill-rule="nonzero"/><path fill="#2e7d32" d="M 128.144531 331.417969 C 126.265625 326.214844 124.460938 321.117188 122.746094 316.160156 C 125.488281 310.566406 129.171875 303.117188 132.042969 297.585938 C 136.871094 296.726562 143.316406 295.628906 148.183594 295.027344 C 150.128906 300.648438 152.175781 306.421875 154.308594 312.320312 C 151.070312 317.6875 146.765625 324.84375 143.605469 330.257812 C 138.964844 330.527344 132.769531 330.917969 128.144531 331.417969 " fill-opacity="1" fill-rule="nonzero"/><path fill="#2e7d32" d="M 91.691406 374.898438 C 90.664062 372.054688 89.675781 369.265625 88.738281 366.550781 C 89.441406 361.84375 90.414062 355.578125 91.28125 350.898438 C 93.492188 348.949219 96.5 346.40625 98.957031 344.78125 C 100.269531 348.578125 101.652344 352.480469 103.089844 356.460938 C 101.65625 360.816406 99.75 366.625 98.402344 371.007812 C 96.324219 372.058594 93.554688 373.507812 91.691406 374.898438 " fill-opacity="1" fill-rule="nonzero"/><path fill="#2e7d32" d="M 87.847656 394.441406 C 87.355469 393.078125 86.878906 391.738281 86.429688 390.4375 C 85.960938 386.546875 85.378906 381.355469 85.152344 377.445312 C 85.808594 375.109375 86.75 371.988281 87.828125 369.820312 C 88.707031 372.355469 89.628906 374.960938 90.589844 377.617188 C 90.167969 381.125 89.621094 385.800781 89.355469 389.324219 C 88.75 390.804688 88.019531 392.851562 87.847656 394.441406 " fill-opacity="1" fill-rule="nonzero"/><path fill="#2e7d32" d="M 89.328125 401.613281 C 89.003906 400.695312 88.574219 399.46875 88.257812 398.554688 L 86.933594 393.453125 C 87.3125 394.558594 87.71875 395.691406 88.136719 396.851562 C 88.613281 398.628906 89.128906 401.042969 89.753906 402.777344 L 89.328125 401.613281 " fill-opacity="1" fill-rule="nonzero"/><path fill="#2e7d32" d="M 436.46875 261.824219 C 435.996094 260.605469 435.539062 259.402344 435.09375 258.214844 C 437.011719 259.070312 439.558594 260.316406 441.234375 261.582031 L 444.652344 265.46875 L 442.332031 264.472656 C 440.570312 263.679688 437.789062 263.230469 436.46875 261.824219 " fill-opacity="1" fill-rule="nonzero"/><path fill="#2e7d32" d="M 416.972656 260.730469 C 415.894531 257.933594 414.84375 255.164062 413.828125 252.433594 C 416.546875 251.929688 420.199219 251.308594 422.960938 251.230469 C 425.914062 252.996094 429.851562 255.347656 432.78125 257.15625 C 433.300781 258.558594 433.84375 259.980469 434.398438 261.417969 C 432.363281 262.023438 429.660156 262.925781 427.753906 263.867188 C 424.515625 262.949219 420.195312 261.710938 416.972656 260.730469 " fill-opacity="1" fill-rule="nonzero"/><path fill="#2e7d32" d="M 389.46875 263.984375 C 387.851562 259.792969 386.277344 255.644531 384.757812 251.558594 C 388.164062 249.824219 392.738281 247.535156 396.289062 246.109375 C 400.515625 247.886719 406.15625 250.257812 410.382812 252.039062 C 411.46875 254.957031 412.597656 257.921875 413.75 260.917969 C 410.890625 262.8125 407.105469 265.394531 404.398438 267.5 C 399.917969 266.472656 393.9375 265.082031 389.46875 263.984375 " fill-opacity="1" fill-rule="nonzero"/><path fill="#2e7d32" d="M 355.476562 271.25 C 353.414062 265.910156 351.40625 260.621094 349.46875 255.414062 C 353.421875 252.546875 358.71875 248.75 362.824219 246.105469 C 368.097656 247.8125 375.128906 250.09375 380.394531 251.804688 C 381.976562 256.050781 383.613281 260.367188 385.296875 264.726562 C 381.789062 267.742188 377.140625 271.800781 373.777344 274.972656 C 368.28125 273.875 360.957031 272.398438 355.476562 271.25 " fill-opacity="1" fill-rule="nonzero"/><path fill="#2e7d32" d="M 316.527344 282.203125 C 314.128906 276 311.800781 269.855469 309.550781 263.808594 C 313.890625 259.945312 319.703125 254.8125 324.1875 251.109375 C 330.253906 252.652344 338.34375 254.710938 344.402344 256.269531 C 346.390625 261.605469 348.445312 267.027344 350.558594 272.5 C 346.558594 276.46875 341.25 281.785156 337.371094 285.867188 C 331.117188 284.773438 322.777344 283.3125 316.527344 282.203125 " fill-opacity="1" fill-rule="nonzero"/><path fill="#2e7d32" d="M 229.953125 313.792969 C 227.308594 306.9375 224.734375 300.148438 222.246094 293.464844 C 226.886719 288.109375 233.09375 280.988281 237.835938 275.722656 C 244.710938 276.542969 253.875 277.648438 260.734375 278.578125 C 263.1875 285.175781 265.730469 291.875 268.34375 298.640625 C 263.789062 303.917969 257.722656 310.964844 253.222656 316.289062 C 246.242188 315.523438 236.941406 314.511719 229.953125 313.792969 " fill-opacity="1" fill-rule="nonzero"/><path fill="#2e7d32" d="M 153.332031 350.441406 C 151.046875 344.527344 148.828125 338.671875 146.683594 332.90625 C 149.914062 327.539062 154.242188 320.386719 157.550781 315.0625 C 163.199219 315.105469 170.730469 315.195312 176.378906 315.390625 C 178.738281 321.734375 181.179688 328.175781 183.691406 334.675781 C 180.042969 339.875 175.1875 346.804688 171.570312 352.023438 C 166.101562 351.511719 158.808594 350.84375 153.332031 350.441406 " fill-opacity="1" fill-rule="nonzero"/><path fill="#2e7d32" d="M 124.785156 367.691406 C 122.878906 362.757812 121.027344 357.867188 119.234375 353.054688 C 121.632812 348.09375 124.839844 341.480469 127.296875 336.546875 C 131.882812 336.1875 138.003906 335.753906 142.601562 335.601562 C 144.707031 341.257812 146.886719 347 149.125 352.800781 C 146.210938 357.511719 142.324219 363.789062 139.417969 368.503906 C 135.03125 368.207031 129.179688 367.828125 124.785156 367.691406 " fill-opacity="1" fill-rule="nonzero"/><path fill="#2e7d32" d="M 104.1875 383.246094 C 102.761719 379.558594 101.378906 375.910156 100.042969 372.316406 C 101.503906 367.996094 103.472656 362.246094 105.011719 357.949219 C 108.34375 357.171875 112.804688 356.191406 116.191406 355.679688 C 117.925781 360.34375 119.722656 365.082031 121.570312 369.867188 C 119.476562 373.859375 116.675781 379.179688 114.574219 383.171875 C 111.457031 383.125 107.300781 383.082031 104.1875 383.246094 " fill-opacity="1" fill-rule="nonzero"/><path fill="#2e7d32" d="M 92.609375 396.382812 C 91.753906 394.164062 90.921875 391.96875 90.117188 389.804688 C 90.535156 386.351562 91.125 381.753906 91.675781 378.320312 C 93.554688 377.128906 96.121094 375.613281 98.167969 374.757812 C 99.441406 378.171875 100.757812 381.640625 102.109375 385.144531 C 100.914062 388.207031 99.320312 392.296875 98.144531 395.371094 C 96.46875 395.582031 94.21875 395.871094 92.609375 396.382812 " fill-opacity="1" fill-rule="nonzero"/><path fill="#2e7d32" d="M 90.964844 406 L 90.441406 404.632812 L 90 403.441406 C 89.445312 401.429688 88.664062 398.75 88.292969 396.691406 C 88.519531 395.238281 88.882812 393.257812 89.550781 391.945312 C 90.277344 393.902344 91.035156 395.894531 91.808594 397.902344 C 91.589844 399.863281 91.300781 402.476562 91.230469 404.441406 C 91.066406 404.886719 90.839844 405.542969 90.964844 406 " fill-opacity="1" fill-rule="nonzero"/><path fill="#2e7d32" d="M 443.597656 266.054688 C 443.453125 265.699219 443.308594 265.335938 443.164062 264.980469 L 444.652344 265.46875 L 443.597656 266.054688 " fill-opacity="1" fill-rule="nonzero"/><path fill="#2e7d32" d="M 432.304688 271.410156 C 431.46875 269.367188 430.648438 267.324219 429.839844 265.292969 C 431.644531 264.390625 434.082031 263.195312 436.023438 262.640625 C 437.800781 263.292969 440.167969 264.167969 441.964844 264.765625 C 442.199219 265.351562 442.433594 265.945312 442.679688 266.535156 C 441.59375 267.707031 440.191406 269.320312 439.234375 270.597656 C 437.167969 270.941406 434.398438 271.320312 432.304688 271.410156 " fill-opacity="1" fill-rule="nonzero"/><path fill="#2e7d32" d="M 383.71875 292.484375 C 381.726562 287.617188 379.765625 282.753906 377.847656 277.914062 C 381.15625 274.738281 385.582031 270.523438 389.03125 267.503906 C 393.523438 268.472656 399.515625 269.753906 404.023438 270.628906 C 405.503906 274.363281 407.015625 278.109375 408.550781 281.859375 C 405.789062 285.296875 402.128906 289.898438 399.46875 293.414062 C 394.742188 293.191406 388.4375 292.863281 383.71875 292.484375 " fill-opacity="1" fill-rule="nonzero"/><path fill="#2e7d32" d="M 349.273438 307 C 346.851562 301.097656 344.476562 295.199219 342.152344 289.332031 C 345.988281 285.246094 351.113281 279.816406 355.0625 275.84375 C 360.566406 276.890625 367.90625 278.269531 373.425781 279.25 C 375.402344 284.246094 377.425781 289.261719 379.480469 294.285156 C 376.09375 298.578125 371.59375 304.316406 368.289062 308.675781 C 362.582031 308.210938 354.96875 307.574219 349.273438 307 " fill-opacity="1" fill-rule="nonzero"/><path fill="#2e7d32" d="M 183.992188 374.648438 C 181.371094 368.25 178.789062 361.847656 176.269531 355.480469 C 179.957031 350.285156 184.878906 343.367188 188.59375 338.195312 C 194.9375 338.867188 203.394531 339.773438 209.734375 340.492188 C 212.429688 347.292969 215.183594 354.136719 217.988281 360.976562 C 213.984375 366.085938 208.644531 372.902344 204.632812 378.003906 C 198.441406 377 190.183594 375.652344 183.992188 374.648438 " fill-opacity="1" fill-rule="nonzero"/><path fill="#2e7d32" d="M 122.894531 398.699219 C 121.078125 394.269531 119.292969 389.835938 117.546875 385.429688 C 119.753906 381.488281 122.695312 376.230469 124.890625 372.277344 C 129.273438 372.578125 135.113281 373.003906 139.484375 373.433594 C 141.625 378.835938 143.8125 384.269531 146.039062 389.703125 C 143.304688 393.394531 139.648438 398.304688 136.839844 401.933594 C 132.660156 400.945312 127.089844 399.628906 122.894531 398.699219 " fill-opacity="1" fill-rule="nonzero"/><path fill="#2e7d32" d="M 103.679688 405.921875 C 102.433594 402.878906 101.207031 399.832031 100.003906 396.804688 C 101.320312 393.792969 103.070312 389.777344 104.378906 386.765625 C 107.484375 386.800781 111.625 386.894531 114.722656 387.101562 C 116.398438 391.339844 118.117188 395.601562 119.863281 399.863281 C 117.90625 402.550781 115.292969 406.128906 113.234375 408.742188 C 110.375 407.878906 106.558594 406.726562 103.679688 405.921875 " fill-opacity="1" fill-rule="nonzero"/><path fill="#2e7d32" d="M 93.601562 409.335938 C 93.003906 407.871094 92.414062 406.410156 91.835938 404.957031 C 92.113281 403.050781 92.515625 400.515625 92.890625 398.628906 C 94.519531 398.371094 96.710938 398.105469 98.359375 398.085938 C 99.480469 400.914062 100.625 403.757812 101.792969 406.605469 C 100.726562 408.132812 99.300781 410.167969 98.121094 411.605469 C 96.761719 410.929688 94.628906 410.449219 93.601562 409.335938 " fill-opacity="1" fill-rule="nonzero"/><path fill="#2e7d32" d="M 92.605469 410.089844 C 91.875 408.304688 91.875 408.304688 91.515625 407.40625 L 91.222656 406.664062 C 91.277344 406.410156 91.347656 406.078125 91.402344 405.828125 L 91.519531 405.761719 C 92.007812 406.996094 92.503906 408.234375 93.011719 409.472656 C 92.914062 409.714844 92.898438 410.136719 92.675781 410.265625 L 92.605469 410.089844 " fill-opacity="1" fill-rule="nonzero"/><path fill="#2e7d32" d="M 441.722656 274.667969 C 441.199219 273.445312 440.671875 272.210938 440.152344 270.976562 C 441.035156 269.65625 442.207031 267.886719 443.210938 266.65625 L 444.652344 265.46875 L 444.46875 269.605469 C 443.800781 271.199219 442.8125 273.324219 441.722656 274.667969 " fill-opacity="1" fill-rule="nonzero"/><path fill="#2e7d32" d="M 429.050781 290.214844 C 427.832031 287.414062 426.628906 284.582031 425.4375 281.746094 C 427.246094 279.21875 429.675781 275.859375 431.601562 273.421875 C 433.757812 273.152344 436.644531 272.777344 438.742188 272.210938 C 439.355469 273.667969 439.976562 275.121094 440.597656 276.5625 C 439.546875 279.488281 438.148438 283.390625 437.101562 286.320312 C 434.746094 287.609375 431.554688 289.257812 429.050781 290.214844 " fill-opacity="1" fill-rule="nonzero"/><path fill="#2e7d32" d="M 407.546875 308.125 C 405.726562 303.929688 403.921875 299.695312 402.140625 295.445312 C 404.738281 291.890625 408.21875 287.164062 410.917969 283.683594 C 414.484375 283.675781 419.25 283.640625 422.808594 283.410156 C 424.082031 286.449219 425.371094 289.476562 426.675781 292.472656 C 424.726562 296.382812 422.144531 301.597656 420.230469 305.523438 C 416.449219 306.402344 411.382812 307.519531 407.546875 308.125 " fill-opacity="1" fill-rule="nonzero"/><path fill="#2e7d32" d="M 217.101562 401.464844 C 214.246094 394.886719 211.417969 388.246094 208.621094 381.578125 C 212.664062 376.480469 218.054688 369.6875 222.085938 364.585938 C 228.921875 365.503906 238.039062 366.722656 244.882812 367.597656 C 247.792969 374.539062 250.738281 381.449219 253.710938 388.300781 C 249.453125 393.425781 243.769531 400.253906 239.46875 405.339844 C 232.753906 404.207031 223.800781 402.683594 217.101562 401.464844 " fill-opacity="1" fill-rule="nonzero"/><path fill="#2e7d32" d="M 178.847656 412.753906 C 176.28125 406.832031 173.734375 400.855469 171.21875 394.855469 C 174.71875 390.40625 179.375 384.46875 182.828125 379.980469 C 188.988281 381.042969 197.203125 382.460938 203.363281 383.519531 C 206.128906 390.121094 208.933594 396.691406 211.753906 403.203125 C 207.933594 407.582031 202.824219 413.40625 198.917969 417.710938 C 192.894531 416.238281 184.863281 414.269531 178.847656 412.753906 " fill-opacity="1" fill-rule="nonzero"/><path fill="#2e7d32" d="M 146.085938 419.699219 C 143.9375 414.753906 141.816406 409.765625 139.714844 404.757812 C 142.570312 401.15625 146.367188 396.339844 149.15625 392.679688 C 154.410156 393.773438 161.421875 395.242188 166.667969 396.371094 C 169.140625 402.257812 171.640625 408.121094 174.15625 413.929688 C 170.867188 417.378906 166.46875 421.96875 163.0625 425.296875 C 157.964844 423.625 151.171875 421.394531 146.085938 419.699219 " fill-opacity="1" fill-rule="nonzero"/><path fill="#2e7d32" d="M 120.097656 422.097656 C 118.496094 418.402344 116.90625 414.675781 115.335938 410.9375 C 117.453125 408.359375 120.246094 404.902344 122.257812 402.246094 C 126.394531 403.292969 131.914062 404.703125 136.042969 405.800781 C 138.082031 410.652344 140.140625 415.488281 142.21875 420.28125 C 139.574219 422.652344 136.027344 425.796875 133.234375 427.988281 C 129.289062 426.230469 123.125 425.179688 120.097656 422.097656 " fill-opacity="1" fill-rule="nonzero"/><path fill="#2e7d32" d="M 102.183594 419.757812 C 101.21875 417.535156 100.261719 415.292969 99.320312 413.042969 C 100.570312 411.648438 102.203125 409.753906 103.335938 408.261719 C 106.152344 409.207031 109.902344 410.476562 112.703125 411.457031 C 114.199219 415.011719 115.707031 418.550781 117.226562 422.0625 C 115.339844 423.234375 112.800781 424.789062 110.757812 425.667969 C 108.167969 423.917969 104.140625 422.191406 102.183594 419.757812 " fill-opacity="1" fill-rule="nonzero"/><path fill="#2e7d32" d="M 93.953125 413.273438 L 93.757812 412.824219 C 93.503906 412.230469 93.167969 411.441406 92.917969 410.847656 C 93.15625 410.742188 93.445312 410.515625 93.59375 410.300781 C 94.871094 411.128906 96.582031 412.214844 97.886719 412.996094 C 98.742188 415.035156 99.609375 417.066406 100.480469 419.078125 C 99.398438 418.980469 97.902344 418.757812 96.964844 418.210938 C 96.019531 416.75 94.671875 414.851562 93.953125 413.273438 " fill-opacity="1" fill-rule="nonzero"/><path fill="#2e7d32" d="M 445.1875 269.71875 C 445.035156 269.382812 444.875 269.039062 444.722656 268.691406 L 444.652344 265.46875 L 445.1875 269.71875 " fill-opacity="1" fill-rule="nonzero"/><path fill="#2e7d32" d="M 441.351562 292.246094 C 440.46875 290.335938 439.585938 288.382812 438.703125 286.40625 C 439.613281 283.414062 440.828125 279.421875 441.71875 276.425781 C 442.710938 274.839844 443.976562 272.652344 444.527344 270.867188 C 444.777344 271.4375 445.035156 272 445.289062 272.554688 C 445.304688 275.992188 445.289062 280.582031 445.15625 284.015625 C 444.171875 286.550781 442.773438 289.925781 441.351562 292.246094 " fill-opacity="1" fill-rule="nonzero"/><path fill="#2e7d32" d="M 117.160156 436.972656 C 115.84375 434.121094 114.527344 431.214844 113.214844 428.269531 C 115.332031 427.34375 118.125 426.027344 120.09375 424.820312 C 124.019531 426.726562 129.253906 429.261719 133.199219 431.121094 C 135.035156 435.242188 136.875 439.308594 138.71875 443.296875 C 136.019531 444.175781 132.394531 445.304688 129.597656 445.789062 C 125.839844 443.183594 120.046875 440.519531 117.160156 436.972656 " fill-opacity="1" fill-rule="nonzero"/><path fill="#2e7d32" d="M 100.070312 424.234375 C 99.4375 422.867188 98.808594 421.472656 98.175781 420.054688 C 99.320312 420.527344 100.933594 421.089844 102.167969 421.101562 C 104.703125 423.050781 108.097656 425.628906 110.699219 427.484375 C 111.925781 430.238281 113.15625 432.957031 114.386719 435.613281 C 112.359375 435.136719 109.648438 434.40625 107.78125 433.484375 C 105.410156 430.761719 101.933594 427.332031 100.070312 424.234375 " fill-opacity="1" fill-rule="nonzero"/><path fill="#2e7d32" d="M 95.0625 415.777344 C 94.824219 415.238281 94.503906 414.527344 94.265625 413.988281 C 95.042969 415.367188 96.003906 417.257812 96.890625 418.566406 C 97.429688 419.765625 97.964844 420.949219 98.5 422.109375 L 96.113281 418.0625 C 95.796875 417.375 95.371094 416.460938 95.0625 415.777344 " fill-opacity="1" fill-rule="nonzero"/><g clip-path="url(#a94e1b8d0d)"><path fill="#2e7d32" d="M 447.230469 286.589844 C 446.738281 285.597656 446.226562 284.546875 445.695312 283.429688 L 445.683594 283.402344 C 445.660156 279.886719 445.613281 275.203125 445.414062 271.691406 L 444.652344 265.46875 L 446.644531 274.230469 C 446.96875 277.929688 447.347656 282.878906 447.230469 286.589844 " fill-opacity="1" fill-rule="nonzero"/></g><path fill="#2e7d32" d="M 446.675781 272.710938 C 446.550781 272.488281 446.421875 272.242188 446.285156 271.976562 L 444.652344 265.46875 L 446.675781 272.710938 " fill-opacity="1" fill-rule="nonzero"/><g clip-path="url(#ea0e7e093d)"><path fill="#2e7d32" d="M 447.714844 274.363281 C 447.640625 274.273438 447.558594 274.164062 447.46875 274.035156 L 444.652344 265.46875 L 447.714844 274.363281 " fill-opacity="1" fill-rule="nonzero"/></g><g transform="matrix(1, 0, 0, 1, 306, 336)"><g clip-path="url(#d6f52da842)"><g clip-path="url(#b2e1533ba9)"><g transform="matrix(1, 0, 0, 1, 0.000000000000113687, 0)"><g clip-path="url(#8a3cc70a22)"><g fill="#312f30" fill-opacity="1"><g transform="translate(0.969709, 45.860298)"><g><path d="M 33.15625 -32.421875 L 33.15625 0 L 28.203125 0 L 10.328125 -21.953125 L 10.328125 0 L 4.359375 0 L 4.359375 -32.421875 L 9.3125 -32.421875 L 27.1875 -10.46875 L 27.1875 -32.421875 Z M 33.15625 -32.421875 "/></g></g></g><g fill="#312f30" fill-opacity="1"><g transform="translate(37.550044, 45.860298)"><g><path d="M 28.671875 -5.046875 L 28.671875 0 L 4.359375 0 L 4.359375 -32.421875 L 28.015625 -32.421875 L 28.015625 -27.375 L 10.375 -27.375 L 10.375 -18.9375 L 26.03125 -18.9375 L 26.03125 -13.984375 L 10.375 -13.984375 L 10.375 -5.046875 Z M 28.671875 -5.046875 "/></g></g></g><g fill="#312f30" fill-opacity="1"><g transform="translate(67.647774, 45.860298)"><g><path d="M 26.484375 -16.578125 L 32.1875 -16.578125 L 32.1875 -3.65625 C 30.519531 -2.332031 28.570312 -1.3125 26.34375 -0.59375 C 24.125 0.113281 21.84375 0.46875 19.5 0.46875 C 16.195312 0.46875 13.21875 -0.25 10.5625 -1.6875 C 7.90625 -3.125 5.816406 -5.109375 4.296875 -7.640625 C 2.785156 -10.171875 2.03125 -13.023438 2.03125 -16.203125 C 2.03125 -19.390625 2.785156 -22.25 4.296875 -24.78125 C 5.816406 -27.3125 7.910156 -29.289062 10.578125 -30.71875 C 13.253906 -32.15625 16.257812 -32.875 19.59375 -32.875 C 22.3125 -32.875 24.78125 -32.425781 27 -31.53125 C 29.21875 -30.644531 31.085938 -29.335938 32.609375 -27.609375 L 28.8125 -23.890625 C 26.332031 -26.367188 23.351562 -27.609375 19.875 -27.609375 C 17.582031 -27.609375 15.546875 -27.128906 13.765625 -26.171875 C 11.992188 -25.210938 10.609375 -23.867188 9.609375 -22.140625 C 8.609375 -20.410156 8.109375 -18.429688 8.109375 -16.203125 C 8.109375 -14.046875 8.609375 -12.101562 9.609375 -10.375 C 10.609375 -8.644531 11.992188 -7.285156 13.765625 -6.296875 C 15.546875 -5.304688 17.566406 -4.8125 19.828125 -4.8125 C 22.359375 -4.8125 24.578125 -5.367188 26.484375 -6.484375 Z M 26.484375 -16.578125 "/></g></g></g><g fill="#312f30" fill-opacity="1"><g transform="translate(102.468544, 45.860298)"><g><path d="M 19.5 0.46875 C 16.195312 0.46875 13.21875 -0.25 10.5625 -1.6875 C 7.90625 -3.125 5.816406 -5.113281 4.296875 -7.65625 C 2.785156 -10.207031 2.03125 -13.054688 2.03125 -16.203125 C 2.03125 -19.359375 2.785156 -22.207031 4.296875 -24.75 C 5.816406 -27.300781 7.90625 -29.289062 10.5625 -30.71875 C 13.21875 -32.15625 16.195312 -32.875 19.5 -32.875 C 22.800781 -32.875 25.78125 -32.15625 28.4375 -30.71875 C 31.09375 -29.289062 33.175781 -27.3125 34.6875 -24.78125 C 36.195312 -22.25 36.953125 -19.390625 36.953125 -16.203125 C 36.953125 -13.023438 36.195312 -10.171875 34.6875 -7.640625 C 33.175781 -5.109375 31.09375 -3.125 28.4375 -1.6875 C 25.78125 -0.25 22.800781 0.46875 19.5 0.46875 Z M 19.5 -4.8125 C 21.65625 -4.8125 23.597656 -5.296875 25.328125 -6.265625 C 27.054688 -7.242188 28.414062 -8.601562 29.40625 -10.34375 C 30.394531 -12.09375 30.890625 -14.046875 30.890625 -16.203125 C 30.890625 -18.367188 30.394531 -20.320312 29.40625 -22.0625 C 28.414062 -23.8125 27.054688 -25.171875 25.328125 -26.140625 C 23.597656 -27.117188 21.65625 -27.609375 19.5 -27.609375 C 17.332031 -27.609375 15.382812 -27.117188 13.65625 -26.140625 C 11.925781 -25.171875 10.566406 -23.8125 9.578125 -22.0625 C 8.597656 -20.320312 8.109375 -18.367188 8.109375 -16.203125 C 8.109375 -14.046875 8.597656 -12.09375 9.578125 -10.34375 C 10.566406 -8.601562 11.925781 -7.242188 13.65625 -6.265625 C 15.382812 -5.296875 17.332031 -4.8125 19.5 -4.8125 Z M 21.859375 -41.40625 L 28.671875 -41.40625 L 20.609375 -35.0625 L 15.609375 -35.0625 Z M 21.859375 -41.40625 "/></g></g></g><g fill="#312f30" fill-opacity="1"><g transform="translate(140.530615, 45.860298)"><g><path d="M 19.359375 0.46875 C 16.085938 0.46875 13.128906 -0.25 10.484375 -1.6875 C 7.847656 -3.125 5.78125 -5.109375 4.28125 -7.640625 C 2.78125 -10.171875 2.03125 -13.023438 2.03125 -16.203125 C 2.03125 -19.390625 2.785156 -22.25 4.296875 -24.78125 C 5.816406 -27.3125 7.894531 -29.289062 10.53125 -30.71875 C 13.175781 -32.15625 16.132812 -32.875 19.40625 -32.875 C 22.0625 -32.875 24.484375 -32.410156 26.671875 -31.484375 C 28.867188 -30.566406 30.722656 -29.226562 32.234375 -27.46875 L 28.34375 -23.796875 C 26 -26.335938 23.113281 -27.609375 19.6875 -27.609375 C 17.457031 -27.609375 15.460938 -27.117188 13.703125 -26.140625 C 11.941406 -25.171875 10.566406 -23.820312 9.578125 -22.09375 C 8.597656 -20.363281 8.109375 -18.398438 8.109375 -16.203125 C 8.109375 -14.015625 8.597656 -12.054688 9.578125 -10.328125 C 10.566406 -8.597656 11.941406 -7.242188 13.703125 -6.265625 C 15.460938 -5.296875 17.457031 -4.8125 19.6875 -4.8125 C 23.113281 -4.8125 26 -6.09375 28.34375 -8.65625 L 32.234375 -4.953125 C 30.722656 -3.191406 28.863281 -1.847656 26.65625 -0.921875 C 24.445312 0.00390625 22.015625 0.46875 19.359375 0.46875 Z M 19.359375 0.46875 "/></g></g></g><g fill="#312f30" fill-opacity="1"><g transform="translate(173.267688, 45.860298)"><g><path d="M 4.359375 -32.421875 L 10.375 -32.421875 L 10.375 0 L 4.359375 0 Z M 4.359375 -32.421875 "/></g></g></g><g fill="#312f30" fill-opacity="1"><g transform="translate(187.112616, 45.860298)"><g><path d="M 19.5 0.46875 C 16.195312 0.46875 13.21875 -0.25 10.5625 -1.6875 C 7.90625 -3.125 5.816406 -5.113281 4.296875 -7.65625 C 2.785156 -10.207031 2.03125 -13.054688 2.03125 -16.203125 C 2.03125 -19.359375 2.785156 -22.207031 4.296875 -24.75 C 5.816406 -27.300781 7.90625 -29.289062 10.5625 -30.71875 C 13.21875 -32.15625 16.195312 -32.875 19.5 -32.875 C 22.800781 -32.875 25.78125 -32.15625 28.4375 -30.71875 C 31.09375 -29.289062 33.175781 -27.3125 34.6875 -24.78125 C 36.195312 -22.25 36.953125 -19.390625 36.953125 -16.203125 C 36.953125 -13.023438 36.195312 -10.171875 34.6875 -7.640625 C 33.175781 -5.109375 31.09375 -3.125 28.4375 -1.6875 C 25.78125 -0.25 22.800781 0.46875 19.5 0.46875 Z M 19.5 -4.8125 C 21.65625 -4.8125 23.597656 -5.296875 25.328125 -6.265625 C 27.054688 -7.242188 28.414062 -8.601562 29.40625 -10.34375 C 30.394531 -12.09375 30.890625 -14.046875 30.890625 -16.203125 C 30.890625 -18.367188 30.394531 -20.320312 29.40625 -22.0625 C 28.414062 -23.8125 27.054688 -25.171875 25.328125 -26.140625 C 23.597656 -27.117188 21.65625 -27.609375 19.5 -27.609375 C 17.332031 -27.609375 15.382812 -27.117188 13.65625 -26.140625 C 11.925781 -25.171875 10.566406 -23.8125 9.578125 -22.0625 C 8.597656 -20.320312 8.109375 -18.367188 8.109375 -16.203125 C 8.109375 -14.046875 8.597656 -12.09375 9.578125 -10.34375 C 10.566406 -8.601562 11.925781 -7.242188 13.65625 -6.265625 C 15.382812 -5.296875 17.332031 -4.8125 19.5 -4.8125 Z M 19.5 -4.8125 "/></g></g></g><g fill="#312f30" fill-opacity="1"><g transform="translate(225.174676, 45.860298)"><g/></g></g><g fill="#312f30" fill-opacity="1"><g transform="translate(237.028527, 45.860298)"><g><path d="M 4.359375 -32.421875 L 18.53125 -32.421875 C 21.988281 -32.421875 25.054688 -31.75 27.734375 -30.40625 C 30.421875 -29.0625 32.503906 -27.160156 33.984375 -24.703125 C 35.472656 -22.253906 36.21875 -19.421875 36.21875 -16.203125 C 36.21875 -12.992188 35.472656 -10.160156 33.984375 -7.703125 C 32.503906 -5.253906 30.421875 -3.359375 27.734375 -2.015625 C 25.054688 -0.671875 21.988281 0 18.53125 0 L 4.359375 0 Z M 18.25 -5.09375 C 20.625 -5.09375 22.710938 -5.546875 24.515625 -6.453125 C 26.328125 -7.367188 27.71875 -8.664062 28.6875 -10.34375 C 29.664062 -12.03125 30.15625 -13.984375 30.15625 -16.203125 C 30.15625 -18.429688 29.664062 -20.382812 28.6875 -22.0625 C 27.71875 -23.75 26.328125 -25.046875 24.515625 -25.953125 C 22.710938 -26.867188 20.625 -27.328125 18.25 -27.328125 L 10.375 -27.328125 L 10.375 -5.09375 Z M 18.25 -5.09375 "/></g></g></g><g fill="#312f30" fill-opacity="1"><g transform="translate(274.349724, 45.860298)"><g><path d="M 28.671875 -5.046875 L 28.671875 0 L 4.359375 0 L 4.359375 -32.421875 L 28.015625 -32.421875 L 28.015625 -27.375 L 10.375 -27.375 L 10.375 -18.9375 L 26.03125 -18.9375 L 26.03125 -13.984375 L 10.375 -13.984375 L 10.375 -5.046875 Z M 28.671875 -5.046875 "/></g></g></g><g fill="#312f30" fill-opacity="1"><g transform="translate(304.447443, 45.860298)"><g/></g></g><g fill="#312f30" fill-opacity="1"><g transform="translate(316.301294, 45.860298)"><g><path d="M 27.328125 -16.859375 C 29.117188 -16.273438 30.535156 -15.296875 31.578125 -13.921875 C 32.628906 -12.546875 33.15625 -10.835938 33.15625 -8.796875 C 33.15625 -5.984375 32.070312 -3.8125 29.90625 -2.28125 C 27.75 -0.757812 24.601562 0 20.46875 0 L 4.359375 0 L 4.359375 -32.421875 L 19.546875 -32.421875 C 23.367188 -32.421875 26.316406 -31.671875 28.390625 -30.171875 C 30.460938 -28.671875 31.5 -26.609375 31.5 -23.984375 C 31.5 -22.378906 31.125 -20.957031 30.375 -19.71875 C 29.632812 -18.488281 28.617188 -17.535156 27.328125 -16.859375 Z M 10.375 -27.6875 L 10.375 -18.75 L 18.890625 -18.75 C 20.992188 -18.75 22.609375 -19.128906 23.734375 -19.890625 C 24.859375 -20.648438 25.421875 -21.753906 25.421875 -23.203125 C 25.421875 -24.679688 24.859375 -25.796875 23.734375 -26.546875 C 22.609375 -27.304688 20.992188 -27.6875 18.890625 -27.6875 Z M 20.09375 -4.71875 C 24.757812 -4.71875 27.09375 -6.28125 27.09375 -9.40625 C 27.09375 -12.519531 24.757812 -14.078125 20.09375 -14.078125 L 10.375 -14.078125 L 10.375 -4.71875 Z M 20.09375 -4.71875 "/></g></g></g><g fill="#312f30" fill-opacity="1"><g transform="translate(350.612713, 45.860298)"><g><path d="M 19.5 0.46875 C 16.195312 0.46875 13.21875 -0.25 10.5625 -1.6875 C 7.90625 -3.125 5.816406 -5.113281 4.296875 -7.65625 C 2.785156 -10.207031 2.03125 -13.054688 2.03125 -16.203125 C 2.03125 -19.359375 2.785156 -22.207031 4.296875 -24.75 C 5.816406 -27.300781 7.90625 -29.289062 10.5625 -30.71875 C 13.21875 -32.15625 16.195312 -32.875 19.5 -32.875 C 22.800781 -32.875 25.78125 -32.15625 28.4375 -30.71875 C 31.09375 -29.289062 33.175781 -27.3125 34.6875 -24.78125 C 36.195312 -22.25 36.953125 -19.390625 36.953125 -16.203125 C 36.953125 -13.023438 36.195312 -10.171875 34.6875 -7.640625 C 33.175781 -5.109375 31.09375 -3.125 28.4375 -1.6875 C 25.78125 -0.25 22.800781 0.46875 19.5 0.46875 Z M 19.5 -4.8125 C 21.65625 -4.8125 23.597656 -5.296875 25.328125 -6.265625 C 27.054688 -7.242188 28.414062 -8.601562 29.40625 -10.34375 C 30.394531 -12.09375 30.890625 -14.046875 30.890625 -16.203125 C 30.890625 -18.367188 30.394531 -20.320312 29.40625 -22.0625 C 28.414062 -23.8125 27.054688 -25.171875 25.328125 -26.140625 C 23.597656 -27.117188 21.65625 -27.609375 19.5 -27.609375 C 17.332031 -27.609375 15.382812 -27.117188 13.65625 -26.140625 C 11.925781 -25.171875 10.566406 -23.8125 9.578125 -22.0625 C 8.597656 -20.320312 8.109375 -18.367188 8.109375 -16.203125 C 8.109375 -14.046875 8.597656 -12.09375 9.578125 -10.34375 C 10.566406 -8.601562 11.925781 -7.242188 13.65625 -6.265625 C 15.382812 -5.296875 17.332031 -4.8125 19.5 -4.8125 Z M 19.5 -4.8125 "/></g></g></g><g fill="#312f30" fill-opacity="1"><g transform="translate(388.674762, 45.860298)"><g><path d="M 4.359375 -32.421875 L 10.375 -32.421875 L 10.375 -5.09375 L 27.328125 -5.09375 L 27.328125 0 L 4.359375 0 Z M 4.359375 -32.421875 "/></g></g></g><g fill="#312f30" fill-opacity="1"><g transform="translate(415.48492, 45.860298)"><g><path d="M 14.40625 0.46875 C 11.90625 0.46875 9.488281 0.113281 7.15625 -0.59375 C 4.820312 -1.3125 2.976562 -2.253906 1.625 -3.421875 L 3.703125 -8.109375 C 5.035156 -7.054688 6.664062 -6.195312 8.59375 -5.53125 C 10.519531 -4.863281 12.457031 -4.53125 14.40625 -4.53125 C 16.8125 -4.53125 18.609375 -4.914062 19.796875 -5.6875 C 20.984375 -6.46875 21.578125 -7.488281 21.578125 -8.75 C 21.578125 -9.675781 21.242188 -10.441406 20.578125 -11.046875 C 19.921875 -11.648438 19.082031 -12.117188 18.0625 -12.453125 C 17.039062 -12.796875 15.648438 -13.179688 13.890625 -13.609375 C 11.421875 -14.203125 9.421875 -14.789062 7.890625 -15.375 C 6.367188 -15.957031 5.054688 -16.875 3.953125 -18.125 C 2.859375 -19.375 2.3125 -21.066406 2.3125 -23.203125 C 2.3125 -24.992188 2.796875 -26.617188 3.765625 -28.078125 C 4.742188 -29.546875 6.210938 -30.710938 8.171875 -31.578125 C 10.128906 -32.441406 12.53125 -32.875 15.375 -32.875 C 17.351562 -32.875 19.296875 -32.628906 21.203125 -32.140625 C 23.117188 -31.648438 24.773438 -30.941406 26.171875 -30.015625 L 24.265625 -25.328125 C 22.847656 -26.160156 21.363281 -26.789062 19.8125 -27.21875 C 18.269531 -27.65625 16.773438 -27.875 15.328125 -27.875 C 12.953125 -27.875 11.1875 -27.472656 10.03125 -26.671875 C 8.875 -25.867188 8.296875 -24.804688 8.296875 -23.484375 C 8.296875 -22.554688 8.625 -21.796875 9.28125 -21.203125 C 9.945312 -20.617188 10.789062 -20.15625 11.8125 -19.8125 C 12.832031 -19.476562 14.222656 -19.09375 15.984375 -18.65625 C 18.390625 -18.101562 20.363281 -17.523438 21.90625 -16.921875 C 23.445312 -16.328125 24.765625 -15.410156 25.859375 -14.171875 C 26.960938 -12.929688 27.515625 -11.265625 27.515625 -9.171875 C 27.515625 -7.378906 27.023438 -5.753906 26.046875 -4.296875 C 25.078125 -2.847656 23.601562 -1.691406 21.625 -0.828125 C 19.644531 0.0351562 17.238281 0.46875 14.40625 0.46875 Z M 14.40625 0.46875 "/></g></g></g><g fill="#312f30" fill-opacity="1"><g transform="translate(443.684171, 45.860298)"><g><path d="M 19.5 0.46875 C 16.195312 0.46875 13.21875 -0.25 10.5625 -1.6875 C 7.90625 -3.125 5.816406 -5.113281 4.296875 -7.65625 C 2.785156 -10.207031 2.03125 -13.054688 2.03125 -16.203125 C 2.03125 -19.359375 2.785156 -22.207031 4.296875 -24.75 C 5.816406 -27.300781 7.90625 -29.289062 10.5625 -30.71875 C 13.21875 -32.15625 16.195312 -32.875 19.5 -32.875 C 22.800781 -32.875 25.78125 -32.15625 28.4375 -30.71875 C 31.09375 -29.289062 33.175781 -27.3125 34.6875 -24.78125 C 36.195312 -22.25 36.953125 -19.390625 36.953125 -16.203125 C 36.953125 -13.023438 36.195312 -10.171875 34.6875 -7.640625 C 33.175781 -5.109375 31.09375 -3.125 28.4375 -1.6875 C 25.78125 -0.25 22.800781 0.46875 19.5 0.46875 Z M 19.5 -4.8125 C 21.65625 -4.8125 23.597656 -5.296875 25.328125 -6.265625 C 27.054688 -7.242188 28.414062 -8.601562 29.40625 -10.34375 C 30.394531 -12.09375 30.890625 -14.046875 30.890625 -16.203125 C 30.890625 -18.367188 30.394531 -20.320312 29.40625 -22.0625 C 28.414062 -23.8125 27.054688 -25.171875 25.328125 -26.140625 C 23.597656 -27.117188 21.65625 -27.609375 19.5 -27.609375 C 17.332031 -27.609375 15.382812 -27.117188 13.65625 -26.140625 C 11.925781 -25.171875 10.566406 -23.8125 9.578125 -22.0625 C 8.597656 -20.320312 8.109375 -18.367188 8.109375 -16.203125 C 8.109375 -14.046875 8.597656 -12.09375 9.578125 -10.34375 C 10.566406 -8.601562 11.925781 -7.242188 13.65625 -6.265625 C 15.382812 -5.296875 17.332031 -4.8125 19.5 -4.8125 Z M 19.5 -4.8125 "/></g></g></g></g></g></g><g clip-path="url(#0cf125421b)"><g transform="matrix(1, 0, 0, 1, 228, 56)"><g clip-path="url(#287a5eab4c)"><g fill="#312f30" fill-opacity="1"><g transform="translate(1.609733, 21.207338)"><g><path d="M 16.28125 -15.515625 L 9.515625 0 L 6.671875 0 L -0.109375 -15.515625 L 3.015625 -15.515625 L 8.1875 -3.546875 L 13.390625 -15.515625 Z M 16.28125 -15.515625 "/></g></g></g><g fill="#312f30" fill-opacity="1"><g transform="translate(28.098593, 21.207338)"><g><path d="M 13.71875 -2.421875 L 13.71875 0 L 2.078125 0 L 2.078125 -15.515625 L 13.40625 -15.515625 L 13.40625 -13.109375 L 4.96875 -13.109375 L 4.96875 -9.0625 L 12.453125 -9.0625 L 12.453125 -6.703125 L 4.96875 -6.703125 L 4.96875 -2.421875 Z M 13.71875 -2.421875 "/></g></g></g><g fill="#312f30" fill-opacity="1"><g transform="translate(53.279827, 21.207338)"><g><path d="M 15.875 -15.515625 L 15.875 0 L 13.5 0 L 4.9375 -10.515625 L 4.9375 0 L 2.078125 0 L 2.078125 -15.515625 L 4.453125 -15.515625 L 13.015625 -5.015625 L 13.015625 -15.515625 Z M 15.875 -15.515625 "/></g></g></g><g fill="#312f30" fill-opacity="1"><g transform="translate(81.563917, 21.207338)"><g><path d="M 2.078125 -15.515625 L 8.875 -15.515625 C 10.53125 -15.515625 12 -15.191406 13.28125 -14.546875 C 14.5625 -13.910156 15.554688 -13.003906 16.265625 -11.828125 C 16.984375 -10.648438 17.34375 -9.296875 17.34375 -7.765625 C 17.34375 -6.222656 16.984375 -4.863281 16.265625 -3.6875 C 15.554688 -2.507812 14.5625 -1.597656 13.28125 -0.953125 C 12 -0.316406 10.53125 0 8.875 0 L 2.078125 0 Z M 8.734375 -2.4375 C 9.867188 -2.4375 10.867188 -2.65625 11.734375 -3.09375 C 12.597656 -3.53125 13.265625 -4.148438 13.734375 -4.953125 C 14.203125 -5.753906 14.4375 -6.691406 14.4375 -7.765625 C 14.4375 -8.828125 14.203125 -9.757812 13.734375 -10.5625 C 13.265625 -11.363281 12.597656 -11.984375 11.734375 -12.421875 C 10.867188 -12.859375 9.867188 -13.078125 8.734375 -13.078125 L 4.96875 -13.078125 L 4.96875 -2.4375 Z M 8.734375 -2.4375 "/></g></g></g><g fill="#312f30" fill-opacity="1"><g transform="translate(110.202617, 21.207338)"><g><path d="M 13.71875 -2.421875 L 13.71875 0 L 2.078125 0 L 2.078125 -15.515625 L 13.40625 -15.515625 L 13.40625 -13.109375 L 4.96875 -13.109375 L 4.96875 -9.0625 L 12.453125 -9.0625 L 12.453125 -6.703125 L 4.96875 -6.703125 L 4.96875 -2.421875 Z M 13.71875 -2.421875 "/></g></g></g><g fill="#312f30" fill-opacity="1"><g transform="translate(135.383851, 21.207338)"><g><path d="M 12.234375 0 L 9.0625 -4.546875 C 8.9375 -4.523438 8.738281 -4.515625 8.46875 -4.515625 L 4.96875 -4.515625 L 4.96875 0 L 2.078125 0 L 2.078125 -15.515625 L 8.46875 -15.515625 C 9.8125 -15.515625 10.984375 -15.289062 11.984375 -14.84375 C 12.984375 -14.40625 13.75 -13.769531 14.28125 -12.9375 C 14.8125 -12.113281 15.078125 -11.132812 15.078125 -10 C 15.078125 -8.832031 14.789062 -7.828125 14.21875 -6.984375 C 13.65625 -6.140625 12.835938 -5.507812 11.765625 -5.09375 L 15.34375 0 Z M 12.171875 -10 C 12.171875 -10.988281 11.84375 -11.75 11.1875 -12.28125 C 10.539062 -12.8125 9.59375 -13.078125 8.34375 -13.078125 L 4.96875 -13.078125 L 4.96875 -6.890625 L 8.34375 -6.890625 C 9.59375 -6.890625 10.539062 -7.160156 11.1875 -7.703125 C 11.84375 -8.242188 12.171875 -9.007812 12.171875 -10 Z M 12.171875 -10 "/></g></g></g><g fill="#312f30" fill-opacity="1"><g transform="translate(161.917039, 21.207338)"><g><path d="M 2.734375 -3.53125 C 3.242188 -3.53125 3.664062 -3.359375 4 -3.015625 C 4.34375 -2.671875 4.515625 -2.226562 4.515625 -1.6875 C 4.515625 -1.445312 4.484375 -1.195312 4.421875 -0.9375 C 4.359375 -0.675781 4.222656 -0.289062 4.015625 0.21875 L 2.875 3.34375 L 1.09375 3.34375 L 1.96875 -0.046875 C 1.644531 -0.179688 1.390625 -0.390625 1.203125 -0.671875 C 1.023438 -0.960938 0.9375 -1.300781 0.9375 -1.6875 C 0.9375 -2.226562 1.101562 -2.671875 1.4375 -3.015625 C 1.78125 -3.359375 2.210938 -3.53125 2.734375 -3.53125 Z M 2.734375 -3.53125 "/></g></g></g><g fill="#312f30" fill-opacity="1"><g transform="translate(177.656708, 21.207338)"><g><path d="M 9.265625 0.21875 C 7.703125 0.21875 6.285156 -0.125 5.015625 -0.8125 C 3.753906 -1.5 2.765625 -2.445312 2.046875 -3.65625 C 1.328125 -4.863281 0.96875 -6.234375 0.96875 -7.765625 C 0.96875 -9.285156 1.328125 -10.648438 2.046875 -11.859375 C 2.773438 -13.078125 3.769531 -14.023438 5.03125 -14.703125 C 6.300781 -15.390625 7.722656 -15.734375 9.296875 -15.734375 C 10.566406 -15.734375 11.722656 -15.507812 12.765625 -15.0625 C 13.816406 -14.625 14.707031 -13.984375 15.4375 -13.140625 L 13.5625 -11.390625 C 12.445312 -12.609375 11.066406 -13.21875 9.421875 -13.21875 C 8.359375 -13.21875 7.40625 -12.984375 6.5625 -12.515625 C 5.71875 -12.046875 5.054688 -11.394531 4.578125 -10.5625 C 4.109375 -9.738281 3.875 -8.804688 3.875 -7.765625 C 3.875 -6.710938 4.109375 -5.769531 4.578125 -4.9375 C 5.054688 -4.113281 5.71875 -3.46875 6.5625 -3 C 7.40625 -2.539062 8.359375 -2.3125 9.421875 -2.3125 C 11.066406 -2.3125 12.445312 -2.921875 13.5625 -4.140625 L 15.4375 -2.375 C 14.707031 -1.53125 13.8125 -0.882812 12.75 -0.4375 C 11.695312 0 10.535156 0.21875 9.265625 0.21875 Z M 9.265625 0.21875 "/></g></g></g><g fill="#312f30" fill-opacity="1"><g transform="translate(204.101251, 21.207338)"><g><path d="M 9.328125 0.21875 C 7.753906 0.21875 6.328125 -0.125 5.046875 -0.8125 C 3.773438 -1.5 2.773438 -2.453125 2.046875 -3.671875 C 1.328125 -4.890625 0.96875 -6.253906 0.96875 -7.765625 C 0.96875 -9.265625 1.328125 -10.625 2.046875 -11.84375 C 2.773438 -13.070312 3.773438 -14.023438 5.046875 -14.703125 C 6.328125 -15.390625 7.753906 -15.734375 9.328125 -15.734375 C 10.910156 -15.734375 12.335938 -15.390625 13.609375 -14.703125 C 14.878906 -14.023438 15.875 -13.078125 16.59375 -11.859375 C 17.320312 -10.648438 17.6875 -9.285156 17.6875 -7.765625 C 17.6875 -6.234375 17.320312 -4.863281 16.59375 -3.65625 C 15.875 -2.445312 14.878906 -1.5 13.609375 -0.8125 C 12.335938 -0.125 10.910156 0.21875 9.328125 0.21875 Z M 9.328125 -2.3125 C 10.367188 -2.3125 11.300781 -2.539062 12.125 -3 C 12.957031 -3.46875 13.609375 -4.117188 14.078125 -4.953125 C 14.546875 -5.785156 14.78125 -6.722656 14.78125 -7.765625 C 14.78125 -8.796875 14.546875 -9.726562 14.078125 -10.5625 C 13.609375 -11.394531 12.957031 -12.046875 12.125 -12.515625 C 11.300781 -12.984375 10.367188 -13.21875 9.328125 -13.21875 C 8.296875 -13.21875 7.363281 -12.984375 6.53125 -12.515625 C 5.707031 -12.046875 5.054688 -11.394531 4.578125 -10.5625 C 4.109375 -9.726562 3.875 -8.796875 3.875 -7.765625 C 3.875 -6.722656 4.109375 -5.785156 4.578125 -4.953125 C 5.054688 -4.117188 5.707031 -3.46875 6.53125 -3 C 7.363281 -2.539062 8.296875 -2.3125 9.328125 -2.3125 Z M 9.328125 -2.3125 "/></g></g></g><g fill="#312f30" fill-opacity="1"><g transform="translate(233.094561, 21.207338)"><g><path d="M 15.875 -15.515625 L 15.875 0 L 13.5 0 L 4.9375 -10.515625 L 4.9375 0 L 2.078125 0 L 2.078125 -15.515625 L 4.453125 -15.515625 L 13.015625 -5.015625 L 13.015625 -15.515625 Z M 15.875 -15.515625 "/></g></g></g><g fill="#312f30" fill-opacity="1"><g transform="translate(261.378652, 21.207338)"><g><path d="M 5.234375 -13.078125 L 0.09375 -13.078125 L 0.09375 -15.515625 L 13.265625 -15.515625 L 13.265625 -13.078125 L 8.109375 -13.078125 L 8.109375 0 L 5.234375 0 Z M 5.234375 -13.078125 "/></g></g></g><g fill="#312f30" fill-opacity="1"><g transform="translate(285.052779, 21.207338)"><g><path d="M 12.234375 0 L 9.0625 -4.546875 C 8.9375 -4.523438 8.738281 -4.515625 8.46875 -4.515625 L 4.96875 -4.515625 L 4.96875 0 L 2.078125 0 L 2.078125 -15.515625 L 8.46875 -15.515625 C 9.8125 -15.515625 10.984375 -15.289062 11.984375 -14.84375 C 12.984375 -14.40625 13.75 -13.769531 14.28125 -12.9375 C 14.8125 -12.113281 15.078125 -11.132812 15.078125 -10 C 15.078125 -8.832031 14.789062 -7.828125 14.21875 -6.984375 C 13.65625 -6.140625 12.835938 -5.507812 11.765625 -5.09375 L 15.34375 0 Z M 12.171875 -10 C 12.171875 -10.988281 11.84375 -11.75 11.1875 -12.28125 C 10.539062 -12.8125 9.59375 -13.078125 8.34375 -13.078125 L 4.96875 -13.078125 L 4.96875 -6.890625 L 8.34375 -6.890625 C 9.59375 -6.890625 10.539062 -7.160156 11.1875 -7.703125 C 11.84375 -8.242188 12.171875 -9.007812 12.171875 -10 Z M 12.171875 -10 "/></g></g></g><g fill="#312f30" fill-opacity="1"><g transform="translate(311.585978, 21.207338)"><g><path d="M 9.328125 0.21875 C 7.753906 0.21875 6.328125 -0.125 5.046875 -0.8125 C 3.773438 -1.5 2.773438 -2.453125 2.046875 -3.671875 C 1.328125 -4.890625 0.96875 -6.253906 0.96875 -7.765625 C 0.96875 -9.265625 1.328125 -10.625 2.046875 -11.84375 C 2.773438 -13.070312 3.773438 -14.023438 5.046875 -14.703125 C 6.328125 -15.390625 7.753906 -15.734375 9.328125 -15.734375 C 10.910156 -15.734375 12.335938 -15.390625 13.609375 -14.703125 C 14.878906 -14.023438 15.875 -13.078125 16.59375 -11.859375 C 17.320312 -10.648438 17.6875 -9.285156 17.6875 -7.765625 C 17.6875 -6.234375 17.320312 -4.863281 16.59375 -3.65625 C 15.875 -2.445312 14.878906 -1.5 13.609375 -0.8125 C 12.335938 -0.125 10.910156 0.21875 9.328125 0.21875 Z M 9.328125 -2.3125 C 10.367188 -2.3125 11.300781 -2.539062 12.125 -3 C 12.957031 -3.46875 13.609375 -4.117188 14.078125 -4.953125 C 14.546875 -5.785156 14.78125 -6.722656 14.78125 -7.765625 C 14.78125 -8.796875 14.546875 -9.726562 14.078125 -10.5625 C 13.609375 -11.394531 12.957031 -12.046875 12.125 -12.515625 C 11.300781 -12.984375 10.367188 -13.21875 9.328125 -13.21875 C 8.296875 -13.21875 7.363281 -12.984375 6.53125 -12.515625 C 5.707031 -12.046875 5.054688 -11.394531 4.578125 -10.5625 C 4.109375 -9.726562 3.875 -8.796875 3.875 -7.765625 C 3.875 -6.722656 4.109375 -5.785156 4.578125 -4.953125 C 5.054688 -4.117188 5.707031 -3.46875 6.53125 -3 C 7.363281 -2.539062 8.296875 -2.3125 9.328125 -2.3125 Z M 9.328125 -2.3125 "/></g></g></g><g fill="#312f30" fill-opacity="1"><g transform="translate(340.579287, 21.207338)"><g><path d="M 2.078125 -15.515625 L 4.96875 -15.515625 L 4.96875 -2.4375 L 13.078125 -2.4375 L 13.078125 0 L 2.078125 0 Z M 2.078125 -15.515625 "/></g></g></g><g fill="#312f30" fill-opacity="1"><g transform="translate(364.186906, 21.207338)"><g><path d="M 12.15625 -3.59375 L 4.390625 -3.59375 L 2.859375 0 L -0.109375 0 L 6.875 -15.515625 L 9.71875 -15.515625 L 16.71875 0 L 13.703125 0 Z M 11.203125 -5.859375 L 8.265625 -12.640625 L 5.359375 -5.859375 Z M 11.203125 -5.859375 "/></g></g></g><g fill="#312f30" fill-opacity="1"><g transform="translate(391.119065, 21.207338)"><g><path d="M 12.234375 0 L 9.0625 -4.546875 C 8.9375 -4.523438 8.738281 -4.515625 8.46875 -4.515625 L 4.96875 -4.515625 L 4.96875 0 L 2.078125 0 L 2.078125 -15.515625 L 8.46875 -15.515625 C 9.8125 -15.515625 10.984375 -15.289062 11.984375 -14.84375 C 12.984375 -14.40625 13.75 -13.769531 14.28125 -12.9375 C 14.8125 -12.113281 15.078125 -11.132812 15.078125 -10 C 15.078125 -8.832031 14.789062 -7.828125 14.21875 -6.984375 C 13.65625 -6.140625 12.835938 -5.507812 11.765625 -5.09375 L 15.34375 0 Z M 12.171875 -10 C 12.171875 -10.988281 11.84375 -11.75 11.1875 -12.28125 C 10.539062 -12.8125 9.59375 -13.078125 8.34375 -13.078125 L 4.96875 -13.078125 L 4.96875 -6.890625 L 8.34375 -6.890625 C 9.59375 -6.890625 10.539062 -7.160156 11.1875 -7.703125 C 11.84375 -8.242188 12.171875 -9.007812 12.171875 -10 Z M 12.171875 -10 "/></g></g></g><g fill="#312f30" fill-opacity="1"><g transform="translate(417.652219, 21.207338)"><g><path d="M 2.734375 -3.53125 C 3.242188 -3.53125 3.664062 -3.359375 4 -3.015625 C 4.34375 -2.671875 4.515625 -2.226562 4.515625 -1.6875 C 4.515625 -1.445312 4.484375 -1.195312 4.421875 -0.9375 C 4.359375 -0.675781 4.222656 -0.289062 4.015625 0.21875 L 2.875 3.34375 L 1.09375 3.34375 L 1.96875 -0.046875 C 1.644531 -0.179688 1.390625 -0.390625 1.203125 -0.671875 C 1.023438 -0.960938 0.9375 -1.300781 0.9375 -1.6875 C 0.9375 -2.226562 1.101562 -2.671875 1.4375 -3.015625 C 1.78125 -3.359375 2.210938 -3.53125 2.734375 -3.53125 Z M 2.734375 -3.53125 "/></g></g></g><g fill="#312f30" fill-opacity="1"><g transform="translate(433.391911, 21.207338)"><g><path d="M 9.265625 0.21875 C 7.703125 0.21875 6.285156 -0.125 5.015625 -0.8125 C 3.753906 -1.5 2.765625 -2.445312 2.046875 -3.65625 C 1.328125 -4.863281 0.96875 -6.234375 0.96875 -7.765625 C 0.96875 -9.285156 1.328125 -10.648438 2.046875 -11.859375 C 2.773438 -13.078125 3.769531 -14.023438 5.03125 -14.703125 C 6.300781 -15.390625 7.722656 -15.734375 9.296875 -15.734375 C 10.566406 -15.734375 11.722656 -15.507812 12.765625 -15.0625 C 13.816406 -14.625 14.707031 -13.984375 15.4375 -13.140625 L 13.5625 -11.390625 C 12.445312 -12.609375 11.066406 -13.21875 9.421875 -13.21875 C 8.359375 -13.21875 7.40625 -12.984375 6.5625 -12.515625 C 5.71875 -12.046875 5.054688 -11.394531 4.578125 -10.5625 C 4.109375 -9.738281 3.875 -8.804688 3.875 -7.765625 C 3.875 -6.710938 4.109375 -5.769531 4.578125 -4.9375 C 5.054688 -4.113281 5.71875 -3.46875 6.5625 -3 C 7.40625 -2.539062 8.359375 -2.3125 9.421875 -2.3125 C 11.066406 -2.3125 12.445312 -2.921875 13.5625 -4.140625 L 15.4375 -2.375 C 14.707031 -1.53125 13.8125 -0.882812 12.75 -0.4375 C 11.695312 0 10.535156 0.21875 9.265625 0.21875 Z M 9.265625 0.21875 "/></g></g></g><g fill="#312f30" fill-opacity="1"><g transform="translate(459.836432, 21.207338)"><g><path d="M 12.234375 0 L 9.0625 -4.546875 C 8.9375 -4.523438 8.738281 -4.515625 8.46875 -4.515625 L 4.96875 -4.515625 L 4.96875 0 L 2.078125 0 L 2.078125 -15.515625 L 8.46875 -15.515625 C 9.8125 -15.515625 10.984375 -15.289062 11.984375 -14.84375 C 12.984375 -14.40625 13.75 -13.769531 14.28125 -12.9375 C 14.8125 -12.113281 15.078125 -11.132812 15.078125 -10 C 15.078125 -8.832031 14.789062 -7.828125 14.21875 -6.984375 C 13.65625 -6.140625 12.835938 -5.507812 11.765625 -5.09375 L 15.34375 0 Z M 12.171875 -10 C 12.171875 -10.988281 11.84375 -11.75 11.1875 -12.28125 C 10.539062 -12.8125 9.59375 -13.078125 8.34375 -13.078125 L 4.96875 -13.078125 L 4.96875 -6.890625 L 8.34375 -6.890625 C 9.59375 -6.890625 10.539062 -7.160156 11.1875 -7.703125 C 11.84375 -8.242188 12.171875 -9.007812 12.171875 -10 Z M 12.171875 -10 "/></g></g></g><g fill="#312f30" fill-opacity="1"><g transform="translate(486.369631, 21.207338)"><g><path d="M 13.71875 -2.421875 L 13.71875 0 L 2.078125 0 L 2.078125 -15.515625 L 13.40625 -15.515625 L 13.40625 -13.109375 L 4.96875 -13.109375 L 4.96875 -9.0625 L 12.453125 -9.0625 L 12.453125 -6.703125 L 4.96875 -6.703125 L 4.96875 -2.421875 Z M 13.71875 -2.421875 "/></g></g></g><g fill="#312f30" fill-opacity="1"><g transform="translate(511.550854, 21.207338)"><g><path d="M 6.890625 0.21875 C 5.691406 0.21875 4.535156 0.0507812 3.421875 -0.28125 C 2.304688 -0.625 1.425781 -1.078125 0.78125 -1.640625 L 1.78125 -3.875 C 2.414062 -3.375 3.191406 -2.960938 4.109375 -2.640625 C 5.035156 -2.328125 5.960938 -2.171875 6.890625 -2.171875 C 8.046875 -2.171875 8.90625 -2.351562 9.46875 -2.71875 C 10.039062 -3.09375 10.328125 -3.582031 10.328125 -4.1875 C 10.328125 -4.632812 10.164062 -5 9.84375 -5.28125 C 9.53125 -5.570312 9.128906 -5.796875 8.640625 -5.953125 C 8.160156 -6.117188 7.5 -6.304688 6.65625 -6.515625 C 5.46875 -6.796875 4.507812 -7.078125 3.78125 -7.359375 C 3.050781 -7.640625 2.421875 -8.078125 1.890625 -8.671875 C 1.367188 -9.273438 1.109375 -10.085938 1.109375 -11.109375 C 1.109375 -11.960938 1.335938 -12.738281 1.796875 -13.4375 C 2.265625 -14.144531 2.96875 -14.703125 3.90625 -15.109375 C 4.851562 -15.523438 6.003906 -15.734375 7.359375 -15.734375 C 8.304688 -15.734375 9.238281 -15.613281 10.15625 -15.375 C 11.070312 -15.144531 11.863281 -14.8125 12.53125 -14.375 L 11.625 -12.125 C 10.9375 -12.53125 10.222656 -12.832031 9.484375 -13.03125 C 8.742188 -13.238281 8.03125 -13.34375 7.34375 -13.34375 C 6.195312 -13.34375 5.347656 -13.148438 4.796875 -12.765625 C 4.242188 -12.378906 3.96875 -11.867188 3.96875 -11.234375 C 3.96875 -10.796875 4.125 -10.4375 4.4375 -10.15625 C 4.757812 -9.875 5.164062 -9.648438 5.65625 -9.484375 C 6.144531 -9.328125 6.8125 -9.144531 7.65625 -8.9375 C 8.800781 -8.664062 9.742188 -8.382812 10.484375 -8.09375 C 11.222656 -7.8125 11.851562 -7.375 12.375 -6.78125 C 12.90625 -6.1875 13.171875 -5.390625 13.171875 -4.390625 C 13.171875 -3.535156 12.9375 -2.757812 12.46875 -2.0625 C 12 -1.363281 11.289062 -0.804688 10.34375 -0.390625 C 9.40625 0.015625 8.253906 0.21875 6.890625 0.21875 Z M 6.890625 0.21875 "/></g></g></g><g fill="#312f30" fill-opacity="1"><g transform="translate(535.823399, 21.207338)"><g><path d="M 9.265625 0.21875 C 7.703125 0.21875 6.285156 -0.125 5.015625 -0.8125 C 3.753906 -1.5 2.765625 -2.445312 2.046875 -3.65625 C 1.328125 -4.863281 0.96875 -6.234375 0.96875 -7.765625 C 0.96875 -9.285156 1.328125 -10.648438 2.046875 -11.859375 C 2.773438 -13.078125 3.769531 -14.023438 5.03125 -14.703125 C 6.300781 -15.390625 7.722656 -15.734375 9.296875 -15.734375 C 10.566406 -15.734375 11.722656 -15.507812 12.765625 -15.0625 C 13.816406 -14.625 14.707031 -13.984375 15.4375 -13.140625 L 13.5625 -11.390625 C 12.445312 -12.609375 11.066406 -13.21875 9.421875 -13.21875 C 8.359375 -13.21875 7.40625 -12.984375 6.5625 -12.515625 C 5.71875 -12.046875 5.054688 -11.394531 4.578125 -10.5625 C 4.109375 -9.738281 3.875 -8.804688 3.875 -7.765625 C 3.875 -6.710938 4.109375 -5.769531 4.578125 -4.9375 C 5.054688 -4.113281 5.71875 -3.46875 6.5625 -3 C 7.40625 -2.539062 8.359375 -2.3125 9.421875 -2.3125 C 11.066406 -2.3125 12.445312 -2.921875 13.5625 -4.140625 L 15.4375 -2.375 C 14.707031 -1.53125 13.8125 -0.882812 12.75 -0.4375 C 11.695312 0 10.535156 0.21875 9.265625 0.21875 Z M 9.265625 0.21875 "/></g></g></g><g fill="#312f30" fill-opacity="1"><g transform="translate(562.267919, 21.207338)"><g><path d="M 13.71875 -2.421875 L 13.71875 0 L 2.078125 0 L 2.078125 -15.515625 L 13.40625 -15.515625 L 13.40625 -13.109375 L 4.96875 -13.109375 L 4.96875 -9.0625 L 12.453125 -9.0625 L 12.453125 -6.703125 L 4.96875 -6.703125 L 4.96875 -2.421875 Z M 13.71875 -2.421875 "/></g></g></g><g fill="#312f30" fill-opacity="1"><g transform="translate(587.449142, 21.207338)"><g><path d="M 12.234375 0 L 9.0625 -4.546875 C 8.9375 -4.523438 8.738281 -4.515625 8.46875 -4.515625 L 4.96875 -4.515625 L 4.96875 0 L 2.078125 0 L 2.078125 -15.515625 L 8.46875 -15.515625 C 9.8125 -15.515625 10.984375 -15.289062 11.984375 -14.84375 C 12.984375 -14.40625 13.75 -13.769531 14.28125 -12.9375 C 14.8125 -12.113281 15.078125 -11.132812 15.078125 -10 C 15.078125 -8.832031 14.789062 -7.828125 14.21875 -6.984375 C 13.65625 -6.140625 12.835938 -5.507812 11.765625 -5.09375 L 15.34375 0 Z M 12.171875 -10 C 12.171875 -10.988281 11.84375 -11.75 11.1875 -12.28125 C 10.539062 -12.8125 9.59375 -13.078125 8.34375 -13.078125 L 4.96875 -13.078125 L 4.96875 -6.890625 L 8.34375 -6.890625 C 9.59375 -6.890625 10.539062 -7.160156 11.1875 -7.703125 C 11.84375 -8.242188 12.171875 -9.007812 12.171875 -10 Z M 12.171875 -10 "/></g></g></g><g fill="#312f30" fill-opacity="1"><g transform="translate(613.982341, 21.207338)"><g><path d="M 2.703125 0.15625 C 2.203125 0.15625 1.773438 -0.015625 1.421875 -0.359375 C 1.066406 -0.710938 0.890625 -1.15625 0.890625 -1.6875 C 0.890625 -2.226562 1.0625 -2.671875 1.40625 -3.015625 C 1.75 -3.359375 2.179688 -3.53125 2.703125 -3.53125 C 3.222656 -3.53125 3.65625 -3.359375 4 -3.015625 C 4.34375 -2.671875 4.515625 -2.226562 4.515625 -1.6875 C 4.515625 -1.15625 4.335938 -0.710938 3.984375 -0.359375 C 3.628906 -0.015625 3.203125 0.15625 2.703125 0.15625 Z M 2.703125 0.15625 "/></g></g></g></g></g></g></g></g></svg>