<svg xmlns="http://www.w3.org/2000/svg" xmlns:xlink="http://www.w3.org/1999/xlink" width="1024" zoomAndPan="magnify" viewBox="0 0 768 767.999994" height="1024" preserveAspectRatio="xMidYMid meet" version="1.0"><defs><g/><clipPath id="3f176b424c"><rect x="0" width="546" y="0" height="64"/></clipPath><clipPath id="6a8fa9c9b8"><path d="M 329 121.976562 L 402 121.976562 L 402 132 L 329 132 Z M 329 121.976562 " clip-rule="nonzero"/></clipPath><clipPath id="4451c17fdc"><path d="M 60.515625 372 L 72 372 L 72 443 L 60.515625 443 Z M 60.515625 372 " clip-rule="nonzero"/></clipPath><clipPath id="7db13c975e"><path d="M 60.515625 422 L 67 422 L 67 492 L 60.515625 492 Z M 60.515625 422 " clip-rule="nonzero"/></clipPath><clipPath id="c475a7913b"><path d="M 701 330 L 707.765625 330 L 707.765625 346 L 701 346 Z M 701 330 " clip-rule="nonzero"/></clipPath></defs><rect x="-76.8" width="921.6" fill="#ffffff" y="-76.799999" height="921.599993" fill-opacity="1"/><rect x="-76.8" width="921.6" fill="#9cd69e" y="-76.799999" height="921.599993" fill-opacity="1"/><g transform="matrix(1, 0, 0, 1, 158, 593)"><g clip-path="url(#3f176b424c)"><g fill="#312f30" fill-opacity="1"><g transform="translate(0.512052, 48.901222)"><g><path d="M 37.4375 -36.609375 L 37.4375 0 L 31.84375 0 L 11.65625 -24.78125 L 11.65625 0 L 4.921875 0 L 4.921875 -36.609375 L 10.515625 -36.609375 L 30.703125 -11.8125 L 30.703125 -36.609375 Z M 37.4375 -36.609375 "/></g></g></g><g fill="#312f30" fill-opacity="1"><g transform="translate(41.804536, 48.901222)"><g><path d="M 32.375 -5.703125 L 32.375 0 L 4.921875 0 L 4.921875 -36.609375 L 31.640625 -36.609375 L 31.640625 -30.90625 L 11.71875 -30.90625 L 11.71875 -21.390625 L 29.390625 -21.390625 L 29.390625 -15.796875 L 11.71875 -15.796875 L 11.71875 -5.703125 Z M 32.375 -5.703125 "/></g></g></g><g fill="#312f30" fill-opacity="1"><g transform="translate(75.779266, 48.901222)"><g><path d="M 29.90625 -18.71875 L 36.34375 -18.71875 L 36.34375 -4.125 C 34.457031 -2.625 32.257812 -1.472656 29.75 -0.671875 C 27.238281 0.117188 24.660156 0.515625 22.015625 0.515625 C 18.285156 0.515625 14.921875 -0.289062 11.921875 -1.90625 C 8.921875 -3.53125 6.566406 -5.769531 4.859375 -8.625 C 3.148438 -11.488281 2.296875 -14.710938 2.296875 -18.296875 C 2.296875 -21.890625 3.148438 -25.113281 4.859375 -27.96875 C 6.566406 -30.832031 8.925781 -33.070312 11.9375 -34.6875 C 14.957031 -36.3125 18.351562 -37.125 22.125 -37.125 C 25.1875 -37.125 27.972656 -36.617188 30.484375 -35.609375 C 32.992188 -34.597656 35.101562 -33.117188 36.8125 -31.171875 L 32.53125 -26.984375 C 29.738281 -29.773438 26.375 -31.171875 22.4375 -31.171875 C 19.851562 -31.171875 17.554688 -30.628906 15.546875 -29.546875 C 13.546875 -28.460938 11.976562 -26.941406 10.84375 -24.984375 C 9.71875 -23.035156 9.15625 -20.804688 9.15625 -18.296875 C 9.15625 -15.859375 9.71875 -13.660156 10.84375 -11.703125 C 11.976562 -9.753906 13.546875 -8.222656 15.546875 -7.109375 C 17.554688 -5.992188 19.835938 -5.4375 22.390625 -5.4375 C 25.242188 -5.4375 27.75 -6.066406 29.90625 -7.328125 Z M 29.90625 -18.71875 "/></g></g></g><g fill="#312f30" fill-opacity="1"><g transform="translate(115.085502, 48.901222)"><g><path d="M 22.015625 0.515625 C 18.285156 0.515625 14.921875 -0.289062 11.921875 -1.90625 C 8.921875 -3.53125 6.566406 -5.78125 4.859375 -8.65625 C 3.148438 -11.53125 2.296875 -14.742188 2.296875 -18.296875 C 2.296875 -21.859375 3.148438 -25.078125 4.859375 -27.953125 C 6.566406 -30.828125 8.921875 -33.070312 11.921875 -34.6875 C 14.921875 -36.3125 18.285156 -37.125 22.015625 -37.125 C 25.742188 -37.125 29.109375 -36.3125 32.109375 -34.6875 C 35.109375 -33.070312 37.460938 -30.832031 39.171875 -27.96875 C 40.878906 -25.113281 41.734375 -21.890625 41.734375 -18.296875 C 41.734375 -14.710938 40.878906 -11.488281 39.171875 -8.625 C 37.460938 -5.769531 35.109375 -3.53125 32.109375 -1.90625 C 29.109375 -0.289062 25.742188 0.515625 22.015625 0.515625 Z M 22.015625 -5.4375 C 24.453125 -5.4375 26.644531 -5.984375 28.59375 -7.078125 C 30.550781 -8.179688 32.085938 -9.71875 33.203125 -11.6875 C 34.316406 -13.65625 34.875 -15.859375 34.875 -18.296875 C 34.875 -20.742188 34.316406 -22.953125 33.203125 -24.921875 C 32.085938 -26.890625 30.550781 -28.421875 28.59375 -29.515625 C 26.644531 -30.617188 24.453125 -31.171875 22.015625 -31.171875 C 19.578125 -31.171875 17.378906 -30.617188 15.421875 -29.515625 C 13.472656 -28.421875 11.941406 -26.890625 10.828125 -24.921875 C 9.710938 -22.953125 9.15625 -20.742188 9.15625 -18.296875 C 9.15625 -15.859375 9.710938 -13.65625 10.828125 -11.6875 C 11.941406 -9.71875 13.472656 -8.179688 15.421875 -7.078125 C 17.378906 -5.984375 19.578125 -5.4375 22.015625 -5.4375 Z M 24.6875 -46.75 L 32.375 -46.75 L 23.265625 -39.59375 L 17.625 -39.59375 Z M 24.6875 -46.75 "/></g></g></g><g fill="#312f30" fill-opacity="1"><g transform="translate(158.050614, 48.901222)"><g><path d="M 21.859375 0.515625 C 18.160156 0.515625 14.820312 -0.289062 11.84375 -1.90625 C 8.863281 -3.53125 6.523438 -5.769531 4.828125 -8.625 C 3.140625 -11.488281 2.296875 -14.710938 2.296875 -18.296875 C 2.296875 -21.890625 3.148438 -25.113281 4.859375 -27.96875 C 6.566406 -30.832031 8.910156 -33.070312 11.890625 -34.6875 C 14.878906 -36.3125 18.21875 -37.125 21.90625 -37.125 C 24.90625 -37.125 27.644531 -36.601562 30.125 -35.5625 C 32.601562 -34.519531 34.695312 -33.003906 36.40625 -31.015625 L 32 -26.875 C 29.351562 -29.738281 26.09375 -31.171875 22.21875 -31.171875 C 19.707031 -31.171875 17.457031 -30.617188 15.46875 -29.515625 C 13.488281 -28.421875 11.941406 -26.894531 10.828125 -24.9375 C 9.710938 -22.988281 9.15625 -20.773438 9.15625 -18.296875 C 9.15625 -15.828125 9.710938 -13.613281 10.828125 -11.65625 C 11.941406 -9.707031 13.488281 -8.179688 15.46875 -7.078125 C 17.457031 -5.984375 19.707031 -5.4375 22.21875 -5.4375 C 26.09375 -5.4375 29.351562 -6.882812 32 -9.78125 L 36.40625 -5.59375 C 34.695312 -3.601562 32.59375 -2.085938 30.09375 -1.046875 C 27.601562 -0.00390625 24.859375 0.515625 21.859375 0.515625 Z M 21.859375 0.515625 "/></g></g></g><g fill="#312f30" fill-opacity="1"><g transform="translate(195.004729, 48.901222)"><g><path d="M 4.921875 -36.609375 L 11.71875 -36.609375 L 11.71875 0 L 4.921875 0 Z M 4.921875 -36.609375 "/></g></g></g><g fill="#312f30" fill-opacity="1"><g transform="translate(210.632822, 48.901222)"><g><path d="M 22.015625 0.515625 C 18.285156 0.515625 14.921875 -0.289062 11.921875 -1.90625 C 8.921875 -3.53125 6.566406 -5.78125 4.859375 -8.65625 C 3.148438 -11.53125 2.296875 -14.742188 2.296875 -18.296875 C 2.296875 -21.859375 3.148438 -25.078125 4.859375 -27.953125 C 6.566406 -30.828125 8.921875 -33.070312 11.921875 -34.6875 C 14.921875 -36.3125 18.285156 -37.125 22.015625 -37.125 C 25.742188 -37.125 29.109375 -36.3125 32.109375 -34.6875 C 35.109375 -33.070312 37.460938 -30.832031 39.171875 -27.96875 C 40.878906 -25.113281 41.734375 -21.890625 41.734375 -18.296875 C 41.734375 -14.710938 40.878906 -11.488281 39.171875 -8.625 C 37.460938 -5.769531 35.109375 -3.53125 32.109375 -1.90625 C 29.109375 -0.289062 25.742188 0.515625 22.015625 0.515625 Z M 22.015625 -5.4375 C 24.453125 -5.4375 26.644531 -5.984375 28.59375 -7.078125 C 30.550781 -8.179688 32.085938 -9.71875 33.203125 -11.6875 C 34.316406 -13.65625 34.875 -15.859375 34.875 -18.296875 C 34.875 -20.742188 34.316406 -22.953125 33.203125 -24.921875 C 32.085938 -26.890625 30.550781 -28.421875 28.59375 -29.515625 C 26.644531 -30.617188 24.453125 -31.171875 22.015625 -31.171875 C 19.578125 -31.171875 17.378906 -30.617188 15.421875 -29.515625 C 13.472656 -28.421875 11.941406 -26.890625 10.828125 -24.921875 C 9.710938 -22.953125 9.15625 -20.742188 9.15625 -18.296875 C 9.15625 -15.859375 9.710938 -13.65625 10.828125 -11.6875 C 11.941406 -9.71875 13.472656 -8.179688 15.421875 -7.078125 C 17.378906 -5.984375 19.578125 -5.4375 22.015625 -5.4375 Z M 22.015625 -5.4375 "/></g></g></g><g fill="#312f30" fill-opacity="1"><g transform="translate(253.597933, 48.901222)"><g/></g></g><g fill="#312f30" fill-opacity="1"><g transform="translate(266.978416, 48.901222)"><g><path d="M 4.921875 -36.609375 L 20.921875 -36.609375 C 24.828125 -36.609375 28.296875 -35.847656 31.328125 -34.328125 C 34.359375 -32.816406 36.707031 -30.675781 38.375 -27.90625 C 40.050781 -25.132812 40.890625 -21.929688 40.890625 -18.296875 C 40.890625 -14.671875 40.050781 -11.472656 38.375 -8.703125 C 36.707031 -5.929688 34.359375 -3.785156 31.328125 -2.265625 C 28.296875 -0.753906 24.828125 0 20.921875 0 L 4.921875 0 Z M 20.609375 -5.75 C 23.285156 -5.75 25.644531 -6.265625 27.6875 -7.296875 C 29.726562 -8.328125 31.296875 -9.789062 32.390625 -11.6875 C 33.492188 -13.582031 34.046875 -15.785156 34.046875 -18.296875 C 34.046875 -20.804688 33.492188 -23.007812 32.390625 -24.90625 C 31.296875 -26.8125 29.726562 -28.28125 27.6875 -29.3125 C 25.644531 -30.34375 23.285156 -30.859375 20.609375 -30.859375 L 11.71875 -30.859375 L 11.71875 -5.75 Z M 20.609375 -5.75 "/></g></g></g><g fill="#312f30" fill-opacity="1"><g transform="translate(309.107215, 48.901222)"><g><path d="M 32.375 -5.703125 L 32.375 0 L 4.921875 0 L 4.921875 -36.609375 L 31.640625 -36.609375 L 31.640625 -30.90625 L 11.71875 -30.90625 L 11.71875 -21.390625 L 29.390625 -21.390625 L 29.390625 -15.796875 L 11.71875 -15.796875 L 11.71875 -5.703125 Z M 32.375 -5.703125 "/></g></g></g><g fill="#312f30" fill-opacity="1"><g transform="translate(343.081945, 48.901222)"><g/></g></g><g fill="#312f30" fill-opacity="1"><g transform="translate(356.462428, 48.901222)"><g><path d="M 30.859375 -19.03125 C 32.878906 -18.375 34.476562 -17.269531 35.65625 -15.71875 C 36.84375 -14.164062 37.4375 -12.238281 37.4375 -9.9375 C 37.4375 -6.757812 36.21875 -4.304688 33.78125 -2.578125 C 31.34375 -0.859375 27.785156 0 23.109375 0 L 4.921875 0 L 4.921875 -36.609375 L 22.0625 -36.609375 C 26.382812 -36.609375 29.710938 -35.757812 32.046875 -34.0625 C 34.390625 -32.375 35.5625 -30.050781 35.5625 -27.09375 C 35.5625 -25.28125 35.140625 -23.675781 34.296875 -22.28125 C 33.460938 -20.882812 32.316406 -19.800781 30.859375 -19.03125 Z M 11.71875 -31.28125 L 11.71875 -21.1875 L 21.34375 -21.1875 C 23.707031 -21.1875 25.523438 -21.613281 26.796875 -22.46875 C 28.078125 -23.320312 28.71875 -24.566406 28.71875 -26.203125 C 28.71875 -27.878906 28.078125 -29.144531 26.796875 -30 C 25.523438 -30.851562 23.707031 -31.28125 21.34375 -31.28125 Z M 22.703125 -5.328125 C 27.960938 -5.328125 30.59375 -7.085938 30.59375 -10.609375 C 30.59375 -14.128906 27.960938 -15.890625 22.703125 -15.890625 L 11.71875 -15.890625 L 11.71875 -5.328125 Z M 22.703125 -5.328125 "/></g></g></g><g fill="#312f30" fill-opacity="1"><g transform="translate(395.193711, 48.901222)"><g><path d="M 22.015625 0.515625 C 18.285156 0.515625 14.921875 -0.289062 11.921875 -1.90625 C 8.921875 -3.53125 6.566406 -5.78125 4.859375 -8.65625 C 3.148438 -11.53125 2.296875 -14.742188 2.296875 -18.296875 C 2.296875 -21.859375 3.148438 -25.078125 4.859375 -27.953125 C 6.566406 -30.828125 8.921875 -33.070312 11.921875 -34.6875 C 14.921875 -36.3125 18.285156 -37.125 22.015625 -37.125 C 25.742188 -37.125 29.109375 -36.3125 32.109375 -34.6875 C 35.109375 -33.070312 37.460938 -30.832031 39.171875 -27.96875 C 40.878906 -25.113281 41.734375 -21.890625 41.734375 -18.296875 C 41.734375 -14.710938 40.878906 -11.488281 39.171875 -8.625 C 37.460938 -5.769531 35.109375 -3.53125 32.109375 -1.90625 C 29.109375 -0.289062 25.742188 0.515625 22.015625 0.515625 Z M 22.015625 -5.4375 C 24.453125 -5.4375 26.644531 -5.984375 28.59375 -7.078125 C 30.550781 -8.179688 32.085938 -9.71875 33.203125 -11.6875 C 34.316406 -13.65625 34.875 -15.859375 34.875 -18.296875 C 34.875 -20.742188 34.316406 -22.953125 33.203125 -24.921875 C 32.085938 -26.890625 30.550781 -28.421875 28.59375 -29.515625 C 26.644531 -30.617188 24.453125 -31.171875 22.015625 -31.171875 C 19.578125 -31.171875 17.378906 -30.617188 15.421875 -29.515625 C 13.472656 -28.421875 11.941406 -26.890625 10.828125 -24.921875 C 9.710938 -22.953125 9.15625 -20.742188 9.15625 -18.296875 C 9.15625 -15.859375 9.710938 -13.65625 10.828125 -11.6875 C 11.941406 -9.71875 13.472656 -8.179688 15.421875 -7.078125 C 17.378906 -5.984375 19.578125 -5.4375 22.015625 -5.4375 Z M 22.015625 -5.4375 "/></g></g></g><g fill="#312f30" fill-opacity="1"><g transform="translate(438.158822, 48.901222)"><g><path d="M 4.921875 -36.609375 L 11.71875 -36.609375 L 11.71875 -5.75 L 30.859375 -5.75 L 30.859375 0 L 4.921875 0 Z M 4.921875 -36.609375 "/></g></g></g><g fill="#312f30" fill-opacity="1"><g transform="translate(468.42242, 48.901222)"><g><path d="M 16.265625 0.515625 C 13.441406 0.515625 10.710938 0.117188 8.078125 -0.671875 C 5.441406 -1.472656 3.359375 -2.539062 1.828125 -3.875 L 4.1875 -9.15625 C 5.6875 -7.96875 7.523438 -7 9.703125 -6.25 C 11.878906 -5.5 14.066406 -5.125 16.265625 -5.125 C 18.984375 -5.125 21.015625 -5.554688 22.359375 -6.421875 C 23.703125 -7.296875 24.375 -8.453125 24.375 -9.890625 C 24.375 -10.929688 24 -11.789062 23.25 -12.46875 C 22.5 -13.15625 21.546875 -13.6875 20.390625 -14.0625 C 19.242188 -14.445312 17.675781 -14.882812 15.6875 -15.375 C 12.894531 -16.039062 10.632812 -16.703125 8.90625 -17.359375 C 7.1875 -18.023438 5.707031 -19.0625 4.46875 -20.46875 C 3.226562 -21.882812 2.609375 -23.796875 2.609375 -26.203125 C 2.609375 -28.222656 3.15625 -30.0625 4.25 -31.71875 C 5.351562 -33.375 7.007812 -34.6875 9.21875 -35.65625 C 11.4375 -36.632812 14.148438 -37.125 17.359375 -37.125 C 19.585938 -37.125 21.78125 -36.84375 23.9375 -36.28125 C 26.101562 -35.726562 27.972656 -34.929688 29.546875 -33.890625 L 27.40625 -28.609375 C 25.800781 -29.546875 24.125 -30.257812 22.375 -30.75 C 20.632812 -31.238281 18.945312 -31.484375 17.3125 -31.484375 C 14.625 -31.484375 12.625 -31.03125 11.3125 -30.125 C 10.007812 -29.21875 9.359375 -28.015625 9.359375 -26.515625 C 9.359375 -25.472656 9.734375 -24.617188 10.484375 -23.953125 C 11.234375 -23.285156 12.179688 -22.757812 13.328125 -22.375 C 14.484375 -22 16.054688 -21.566406 18.046875 -21.078125 C 20.765625 -20.453125 22.992188 -19.796875 24.734375 -19.109375 C 26.472656 -18.429688 27.960938 -17.394531 29.203125 -16 C 30.441406 -14.601562 31.0625 -12.722656 31.0625 -10.359375 C 31.0625 -8.335938 30.507812 -6.503906 29.40625 -4.859375 C 28.3125 -3.222656 26.648438 -1.914062 24.421875 -0.9375 C 22.191406 0.03125 19.472656 0.515625 16.265625 0.515625 Z M 16.265625 0.515625 "/></g></g></g><g fill="#312f30" fill-opacity="1"><g transform="translate(500.25408, 48.901222)"><g><path d="M 22.015625 0.515625 C 18.285156 0.515625 14.921875 -0.289062 11.921875 -1.90625 C 8.921875 -3.53125 6.566406 -5.78125 4.859375 -8.65625 C 3.148438 -11.53125 2.296875 -14.742188 2.296875 -18.296875 C 2.296875 -21.859375 3.148438 -25.078125 4.859375 -27.953125 C 6.566406 -30.828125 8.921875 -33.070312 11.921875 -34.6875 C 14.921875 -36.3125 18.285156 -37.125 22.015625 -37.125 C 25.742188 -37.125 29.109375 -36.3125 32.109375 -34.6875 C 35.109375 -33.070312 37.460938 -30.832031 39.171875 -27.96875 C 40.878906 -25.113281 41.734375 -21.890625 41.734375 -18.296875 C 41.734375 -14.710938 40.878906 -11.488281 39.171875 -8.625 C 37.460938 -5.769531 35.109375 -3.53125 32.109375 -1.90625 C 29.109375 -0.289062 25.742188 0.515625 22.015625 0.515625 Z M 22.015625 -5.4375 C 24.453125 -5.4375 26.644531 -5.984375 28.59375 -7.078125 C 30.550781 -8.179688 32.085938 -9.71875 33.203125 -11.6875 C 34.316406 -13.65625 34.875 -15.859375 34.875 -18.296875 C 34.875 -20.742188 34.316406 -22.953125 33.203125 -24.921875 C 32.085938 -26.890625 30.550781 -28.421875 28.59375 -29.515625 C 26.644531 -30.617188 24.453125 -31.171875 22.015625 -31.171875 C 19.578125 -31.171875 17.378906 -30.617188 15.421875 -29.515625 C 13.472656 -28.421875 11.941406 -26.890625 10.828125 -24.921875 C 9.710938 -22.953125 9.15625 -20.742188 9.15625 -18.296875 C 9.15625 -15.859375 9.710938 -13.65625 10.828125 -11.6875 C 11.941406 -9.71875 13.472656 -8.179688 15.421875 -7.078125 C 17.378906 -5.984375 19.578125 -5.4375 22.015625 -5.4375 Z M 22.015625 -5.4375 "/></g></g></g></g></g><path fill="#2e7d32" d="M 250.765625 156.515625 C 251.328125 154.683594 252.164062 153.523438 253.257812 153.011719 L 267.996094 146.589844 C 281.832031 141.589844 300.46875 135.390625 314.632812 131.410156 L 321.589844 129.808594 C 320.421875 130.265625 319.53125 131.4375 318.949219 133.339844 C 308.332031 137.023438 294.207031 142.070312 283.855469 146.453125 C 273.859375 149.214844 260.535156 153.023438 250.765625 156.515625 " fill-opacity="1" fill-rule="nonzero"/><path fill="#2e7d32" d="M 181.75 199.507812 C 182.167969 198.144531 182.746094 197.164062 183.484375 196.566406 L 183.730469 196.367188 C 211.585938 175.574219 212.121094 175.171875 227.78125 166.1875 L 243.234375 157.871094 C 242.183594 158.402344 241.378906 159.546875 240.835938 161.316406 C 231.253906 167.429688 218.523438 175.679688 209.359375 182.394531 C 200.941406 187.3125 189.761719 193.96875 181.75 199.507812 " fill-opacity="1" fill-rule="nonzero"/><path fill="#2e7d32" d="M 695.160156 314.515625 L 695.449219 314.714844 L 701.898438 330.261719 L 695.160156 314.515625 " fill-opacity="1" fill-rule="nonzero"/><path fill="#2e7d32" d="M 674.183594 277.960938 C 674.289062 277.617188 674.453125 277.40625 674.664062 277.324219 C 680.148438 286.589844 687.378906 299.007812 692.304688 308.582031 L 701.898438 330.261719 L 691.925781 309.09375 C 686.757812 299.664062 679.789062 287.136719 674.183594 277.960938 " fill-opacity="1" fill-rule="nonzero"/><path fill="#2e7d32" d="M 622.714844 216.511719 C 622.957031 215.726562 623.324219 215.242188 623.808594 215.050781 C 631.265625 222.46875 641.136719 232.433594 648.152344 240.269531 C 654.460938 248.558594 662.820312 259.667969 668.722656 268.261719 C 668.476562 268.355469 668.28125 268.605469 668.15625 269.007812 C 661.835938 260.917969 653.3125 250.175781 646.484375 242.503906 C 639.476562 234.59375 630.074219 224.097656 622.714844 216.511719 " fill-opacity="1" fill-rule="nonzero"/><path fill="#2e7d32" d="M 559.285156 169.773438 C 559.644531 168.597656 560.195312 167.871094 560.921875 167.585938 C 569.914062 172.984375 581.855469 180.273438 590.519531 186.183594 C 598.304688 192.542969 608.636719 201.109375 616.082031 207.867188 C 615.5625 208.074219 615.171875 208.589844 614.910156 209.429688 C 606.886719 203.410156 596.113281 195.449219 587.703125 189.96875 C 579.273438 183.769531 567.992188 175.566406 559.285156 169.773438 " fill-opacity="1" fill-rule="nonzero"/><path fill="#2e7d32" d="M 487.121094 139.078125 C 487.585938 137.574219 488.28125 136.648438 489.210938 136.285156 C 499.296875 139.492188 512.734375 143.875 522.613281 147.679688 C 531.46875 151.9375 543.246094 157.710938 551.839844 162.46875 C 551.085938 162.765625 550.515625 163.519531 550.136719 164.746094 C 540.824219 160.9375 528.359375 155.960938 518.8125 152.785156 C 509.378906 148.503906 496.761719 142.863281 487.121094 139.078125 " fill-opacity="1" fill-rule="nonzero"/><path fill="#2e7d32" d="M 409.46875 125.753906 C 410.003906 124.007812 410.816406 122.9375 411.894531 122.515625 C 422.351562 123.34375 436.304688 124.511719 446.691406 125.96875 L 448.125 126.203125 C 457.492188 128.164062 469.980469 130.871094 479.203125 133.425781 C 478.253906 133.789062 477.539062 134.738281 477.0625 136.28125 C 466.886719 134.832031 453.292969 133.015625 443.042969 132.265625 C 433.011719 130.109375 419.609375 127.316406 409.46875 125.753906 " fill-opacity="1" fill-rule="nonzero"/><g clip-path="url(#6a8fa9c9b8)"><path fill="#2e7d32" d="M 329.550781 131.144531 C 330.132812 129.253906 331.015625 128.089844 332.183594 127.636719 L 345.957031 125.265625 C 353.972656 124.417969 364.632812 122.980469 372.675781 122.449219 L 382.527344 121.964844 L 401.386719 122.078125 C 400.292969 122.503906 399.46875 123.59375 398.921875 125.367188 C 388.316406 126.417969 374.164062 127.941406 363.648438 129.722656 C 353.410156 129.90625 339.753906 130.265625 329.550781 131.144531 " fill-opacity="1" fill-rule="nonzero"/></g><path fill="#2e7d32" d="M 126.960938 256.132812 C 127.214844 255.304688 127.539062 254.628906 127.921875 254.113281 C 133.246094 247.613281 140.144531 238.773438 145.738281 232.5 C 154.390625 223.585938 166.070312 211.824219 175.257812 203.46875 C 174.574219 204.066406 174.03125 205.011719 173.632812 206.308594 C 165.855469 214.226562 155.566406 224.878906 148.285156 233.253906 C 141.707031 239.949219 133.019531 248.96875 126.960938 256.132812 " fill-opacity="1" fill-rule="nonzero"/><path fill="#2e7d32" d="M 694.851562 315.570312 C 694.824219 315.332031 694.816406 315.140625 694.820312 314.984375 L 701.898438 330.261719 L 694.851562 315.570312 " fill-opacity="1" fill-rule="nonzero"/><path fill="#2e7d32" d="M 650.707031 251.222656 C 650.554688 249.886719 650.496094 248.769531 650.53125 247.875 C 657.054688 255.738281 665.671875 266.3125 671.675781 274.578125 C 677.277344 283.710938 684.675781 295.941406 689.84375 305.324219 C 689.835938 305.582031 689.851562 305.90625 689.894531 306.289062 C 684.691406 297.960938 677.671875 286.890625 671.902344 278.941406 C 665.667969 270.535156 654.746094 260.882812 650.707031 251.222656 " fill-opacity="1" fill-rule="nonzero"/><path fill="#2e7d32" d="M 592.941406 200.5 C 592.679688 198.160156 592.582031 196.21875 592.648438 194.664062 C 600.808594 200.355469 611.628906 208.039062 619.390625 214.261719 C 626.757812 221.863281 636.535156 232.0625 643.558594 239.984375 C 643.519531 240.972656 643.578125 242.199219 643.746094 243.675781 C 636.746094 237.550781 627.328125 229.441406 619.886719 223.863281 C 611.898438 216.746094 598.046875 209.898438 592.941406 200.5 " fill-opacity="1" fill-rule="nonzero"/><path fill="#2e7d32" d="M 524.800781 164.597656 C 524.441406 161.414062 524.308594 158.757812 524.394531 156.628906 C 533.757812 160.015625 546.214844 164.652344 555.324219 168.679688 C 564.054688 174.546875 575.660156 182.449219 584.113281 188.707031 C 584.042969 190.351562 584.148438 192.394531 584.425781 194.851562 C 576.015625 191.03125 564.738281 186.027344 556.054688 182.878906 C 546.757812 177.269531 534.320312 169.835938 524.800781 164.597656 " fill-opacity="1" fill-rule="nonzero"/><path fill="#2e7d32" d="M 449.523438 144.742188 C 449.085938 140.875 448.929688 137.65625 449.035156 135.074219 C 459.164062 136.054688 472.675781 137.476562 482.710938 139.152344 C 492.390625 143.078125 505.269531 148.390625 514.738281 152.789062 C 514.644531 154.988281 514.78125 157.726562 515.152344 161.015625 C 505.738281 159.597656 493.140625 157.828125 483.644531 157.148438 C 473.46875 153.269531 459.863281 148.164062 449.523438 144.742188 " fill-opacity="1" fill-rule="nonzero"/><path fill="#2e7d32" d="M 370.339844 142.128906 C 369.851562 137.796875 369.667969 134.183594 369.792969 131.289062 C 380.261719 129.757812 394.253906 127.820312 404.808594 127.011719 C 415.007812 128.761719 428.59375 131.191406 438.671875 133.523438 C 438.566406 136.15625 438.726562 139.433594 439.171875 143.378906 C 429.152344 144.453125 415.792969 146.015625 405.882812 147.832031 C 395.253906 145.921875 381.054688 143.464844 370.339844 142.128906 " fill-opacity="1" fill-rule="nonzero"/><path fill="#2e7d32" d="M 290.480469 157.96875 C 289.964844 153.410156 289.773438 149.617188 289.898438 146.570312 C 300.285156 142.429688 314.191406 137.007812 324.835938 133.574219 C 335.113281 132.921875 348.847656 132.164062 359.152344 132.195312 C 359.027344 135.117188 359.210938 138.765625 359.707031 143.140625 C 349.503906 146.773438 335.925781 151.75 325.996094 156.0625 C 315.328125 156.394531 301.097656 156.945312 290.480469 157.96875 " fill-opacity="1" fill-rule="nonzero"/><path fill="#2e7d32" d="M 215.171875 192.398438 C 214.65625 187.886719 214.46875 184.136719 214.597656 181.125 C 223.957031 174.585938 236.519531 165.957031 246.289062 160.039062 C 256.152344 156.804688 269.351562 152.605469 279.425781 150.101562 C 279.296875 153.152344 279.484375 156.957031 280.003906 161.519531 C 270.101562 167.714844 256.957031 176.085938 247.472656 182.886719 C 237.710938 185.5 224.714844 189.09375 215.171875 192.398438 " fill-opacity="1" fill-rule="nonzero"/><path fill="#2e7d32" d="M 152.941406 241.269531 C 152.464844 237.074219 152.292969 233.582031 152.410156 230.785156 C 159.925781 222.523438 170.03125 211.574219 178.023438 203.789062 C 186.140625 198.503906 197.039062 191.5625 205.535156 186.921875 C 205.410156 189.914062 205.59375 193.644531 206.097656 198.128906 C 197.851562 206.214844 186.929688 217.074219 179.152344 225.609375 C 171.15625 230.085938 160.546875 236.160156 152.941406 241.269531 " fill-opacity="1" fill-rule="nonzero"/><path fill="#2e7d32" d="M 105.605469 301.351562 C 105.191406 297.703125 105.042969 294.664062 105.144531 292.226562 C 110.640625 282.71875 118.0625 270.085938 124.089844 260.902344 C 130.253906 253.964844 138.570312 244.777344 145.25 238.332031 C 145.136719 241.089844 145.308594 244.535156 145.773438 248.667969 C 139.402344 258.101562 130.976562 270.734375 125.097656 280.472656 C 119.066406 286.558594 111.09375 294.773438 105.605469 301.351562 " fill-opacity="1" fill-rule="nonzero"/><path fill="#2e7d32" d="M 74.488281 369.566406 C 74.15625 366.660156 74.039062 364.246094 74.121094 362.304688 C 77.429688 352.011719 81.933594 338.304688 85.800781 328.199219 C 89.875 319.96875 95.410156 309.023438 100.066406 301.101562 C 99.964844 303.476562 100.113281 306.441406 100.515625 310 C 96.179688 320.265625 90.476562 334 86.636719 344.460938 C 82.777344 351.882812 77.726562 361.847656 74.488281 369.566406 " fill-opacity="1" fill-rule="nonzero"/><g clip-path="url(#4451c17fdc)"><path fill="#2e7d32" d="M 60.90625 442.851562 C 60.683594 440.855469 60.597656 439.195312 60.652344 437.863281 L 60.863281 434.378906 L 62.269531 418.527344 L 65.152344 398.476562 C 66.886719 390.53125 69.117188 379.914062 71.289062 372.082031 C 71.214844 373.949219 71.332031 376.269531 71.644531 379.0625 C 69.507812 389.679688 66.730469 403.855469 65.097656 414.558594 C 63.621094 423.015625 61.761719 434.3125 60.90625 442.851562 " fill-opacity="1" fill-rule="nonzero"/></g><path fill="#2e7d32" d="M 675.148438 286.394531 C 675.105469 286.21875 675.066406 286.039062 675.023438 285.867188 C 674.78125 284.796875 674.585938 283.820312 674.429688 282.953125 C 679.894531 291.019531 687.085938 301.855469 691.984375 310.277344 L 701.898438 330.261719 L 692.550781 313.023438 C 687.464844 304.949219 679.027344 295.117188 675.148438 286.394531 " fill-opacity="1" fill-rule="nonzero"/><path fill="#2e7d32" d="M 624.925781 235.882812 C 624.828125 235.472656 624.738281 235.070312 624.644531 234.671875 C 624.089844 232.203125 623.636719 229.972656 623.289062 227.976562 C 630.484375 233.699219 640.007812 241.441406 646.738281 247.703125 C 653.375 255.765625 662.164062 266.5625 668.453125 274.898438 C 668.632812 275.925781 668.863281 277.066406 669.148438 278.332031 C 669.199219 278.539062 669.246094 278.75 669.292969 278.957031 C 663.453125 272.996094 655.570312 265.105469 649.226562 259.683594 C 642.023438 252.457031 630.023438 244.722656 624.925781 235.882812 " fill-opacity="1" fill-rule="nonzero"/><path fill="#2e7d32" d="M 562.59375 198.773438 C 562.449219 198.167969 562.308594 197.558594 562.179688 196.957031 C 561.335938 193.265625 560.664062 189.925781 560.136719 186.9375 C 568.628906 190.25 579.933594 194.785156 588.128906 198.769531 C 596.441406 205.539062 607.480469 214.621094 615.519531 221.703125 C 615.898438 223.835938 616.382812 226.226562 616.980469 228.867188 C 617.078125 229.292969 617.175781 229.730469 617.277344 230.164062 C 609.910156 226.589844 600.015625 221.929688 592.339844 219.0625 C 583.480469 212.886719 568.78125 207.628906 562.59375 198.773438 " fill-opacity="1" fill-rule="nonzero"/><path fill="#2e7d32" d="M 491.339844 176.050781 C 491.15625 175.269531 490.980469 174.5 490.808594 173.738281 C 489.742188 169.023438 488.878906 164.769531 488.210938 160.960938 C 497.585938 161.8125 510.101562 163.066406 519.390625 164.664062 C 528.949219 169.917969 541.671875 176.984375 551.027344 182.601562 C 551.570312 185.703125 552.277344 189.175781 553.144531 193.019531 C 553.285156 193.644531 553.429688 194.273438 553.578125 194.910156 C 545.054688 193.789062 533.660156 192.414062 525.070312 192.046875 C 515.003906 187.140625 501.550781 180.648438 491.339844 176.050781 " fill-opacity="1" fill-rule="nonzero"/><path fill="#2e7d32" d="M 414.363281 168.699219 C 414.15625 167.792969 413.949219 166.898438 413.75 166.011719 C 412.511719 160.539062 411.507812 155.597656 410.730469 151.179688 C 420.59375 149.535156 433.777344 147.460938 443.738281 146.566406 C 454.125 150.050781 467.953125 154.773438 478.179688 158.707031 C 478.863281 162.609375 479.746094 166.96875 480.839844 171.800781 C 481.015625 172.582031 481.199219 173.375 481.386719 174.171875 C 472.105469 175.535156 459.730469 177.46875 450.578125 179.535156 C 439.753906 176.148438 425.304688 171.695312 414.363281 168.699219 " fill-opacity="1" fill-rule="nonzero"/><path fill="#2e7d32" d="M 334.867188 177.703125 C 334.632812 176.71875 334.414062 175.746094 334.191406 174.785156 C 332.855469 168.855469 331.765625 163.492188 330.921875 158.703125 C 340.878906 154.558594 354.210938 149.125 364.421875 145.664062 C 375.1875 147.113281 389.535156 149.144531 400.207031 151.15625 C 400.992188 155.640625 402.011719 160.652344 403.265625 166.203125 C 403.472656 167.105469 403.683594 168.015625 403.890625 168.933594 C 394.25 172.765625 381.429688 177.988281 372.050781 182.429688 C 360.917969 180.839844 346.054688 178.789062 334.867188 177.703125 " fill-opacity="1" fill-rule="nonzero"/><path fill="#2e7d32" d="M 256.175781 203.964844 C 255.945312 202.964844 255.71875 201.972656 255.496094 200.992188 C 254.128906 194.949219 253.015625 189.488281 252.160156 184.601562 C 261.773438 177.953125 274.667969 169.179688 284.671875 163.144531 C 295.347656 162.28125 309.613281 161.246094 320.324219 161.0625 C 321.171875 165.886719 322.265625 171.277344 323.617188 177.242188 C 323.832031 178.214844 324.058594 179.1875 324.292969 180.179688 C 314.679688 186.433594 301.917969 194.867188 292.652344 201.621094 C 281.703125 202.121094 267.089844 202.875 256.175781 203.964844 " fill-opacity="1" fill-rule="nonzero"/><path fill="#2e7d32" d="M 186.933594 244.992188 C 186.710938 244.03125 186.492188 243.085938 186.28125 242.148438 C 184.972656 236.351562 183.910156 231.113281 183.085938 226.429688 C 191.039062 217.988281 201.734375 206.800781 210.15625 198.824219 C 219.703125 195.742188 232.488281 191.746094 242.230469 189.347656 C 243.082031 194.222656 244.195312 199.675781 245.558594 205.707031 C 245.777344 206.683594 246.003906 207.671875 246.238281 208.671875 C 237.625 216.933594 226.203125 228.019531 218.015625 236.703125 C 208.636719 238.984375 196.144531 242.101562 186.933594 244.992188 " fill-opacity="1" fill-rule="nonzero"/><path fill="#2e7d32" d="M 131.628906 297.074219 C 131.429688 296.210938 131.230469 295.355469 131.042969 294.507812 C 129.859375 289.289062 128.90625 284.578125 128.164062 280.367188 C 134.253906 270.683594 142.453125 257.820312 149.023438 248.457031 C 156.664062 243.585938 166.941406 237.1875 174.953125 232.957031 C 175.769531 237.59375 176.820312 242.773438 178.117188 248.511719 C 178.324219 249.4375 178.542969 250.382812 178.769531 251.332031 C 171.886719 260.886719 162.765625 273.675781 156.296875 283.519531 C 148.785156 287.371094 138.796875 292.605469 131.628906 297.074219 " fill-opacity="1" fill-rule="nonzero"/><path fill="#2e7d32" d="M 91.625 357.363281 C 91.460938 356.640625 91.292969 355.929688 91.136719 355.222656 C 90.148438 350.875 89.351562 346.941406 88.738281 343.421875 C 92.800781 332.996094 98.308594 319.121094 102.863281 308.898438 C 108.414062 302.539062 115.921875 294.125 122.007812 288.277344 C 122.734375 292.410156 123.671875 297.035156 124.832031 302.152344 C 125.019531 302.980469 125.210938 303.816406 125.410156 304.667969 C 120.390625 314.960938 113.765625 328.726562 109.160156 339.214844 C 103.714844 344.476562 96.527344 351.597656 91.625 357.363281 " fill-opacity="1" fill-rule="nonzero"/><path fill="#2e7d32" d="M 68.292969 423.019531 C 68.171875 422.480469 68.046875 421.949219 67.925781 421.421875 C 67.195312 418.171875 66.597656 415.234375 66.136719 412.601562 C 68.023438 401.921875 70.621094 387.6875 73.011719 377.105469 C 76.308594 369.566406 80.808594 359.539062 84.738281 352.3125 C 85.335938 355.726562 86.113281 359.535156 87.066406 363.753906 C 87.21875 364.441406 87.378906 365.128906 87.539062 365.832031 C 84.527344 376.351562 80.570312 390.398438 77.980469 401.03125 C 74.84375 407.519531 70.761719 416.246094 68.292969 423.019531 " fill-opacity="1" fill-rule="nonzero"/><g clip-path="url(#7db13c975e)"><path fill="#2e7d32" d="M 63 491.195312 C 62.925781 490.871094 62.851562 490.554688 62.773438 490.238281 C 62.332031 488.28125 61.976562 486.511719 61.695312 484.933594 C 61.234375 474.472656 60.710938 460.511719 60.785156 450.039062 C 61.675781 441.625 62.949219 430.40625 64.472656 422.082031 C 64.910156 424.578125 65.476562 427.371094 66.175781 430.464844 C 66.289062 430.960938 66.40625 431.46875 66.527344 431.980469 C 65.648438 442.242188 64.554688 455.925781 64.136719 466.214844 C 63.566406 473.695312 62.925781 483.695312 63 491.195312 " fill-opacity="1" fill-rule="nonzero"/></g><path fill="#2e7d32" d="M 695.730469 319.339844 C 695.597656 318.875 695.472656 318.4375 695.363281 318.023438 L 701.898438 330.261719 L 695.730469 319.339844 " fill-opacity="1" fill-rule="nonzero"/><path fill="#2e7d32" d="M 655.707031 272.667969 C 654.929688 270.027344 654.230469 267.527344 653.609375 265.175781 C 659.621094 270.75 667.554688 278.300781 673.039062 284.386719 C 678.472656 292.082031 685.667969 302.382812 690.734375 310.320312 C 690.914062 311 691.117188 311.722656 691.339844 312.488281 C 686.859375 306.816406 680.800781 299.300781 675.761719 294.125 C 669.832031 287.609375 660.167969 280.269531 655.707031 272.667969 " fill-opacity="1" fill-rule="nonzero"/><path fill="#2e7d32" d="M 601.667969 237.882812 C 600.316406 233.285156 599.09375 228.921875 598.015625 224.820312 C 605.429688 227.878906 615.289062 232.09375 622.382812 235.847656 C 629.835938 242.730469 639.742188 251.945312 646.960938 259.082031 C 647.644531 261.671875 648.414062 264.4375 649.273438 267.347656 C 643.128906 264.082031 634.847656 259.820312 628.371094 257.28125 C 620.414062 251.390625 607.441406 245.929688 601.667969 237.882812 " fill-opacity="1" fill-rule="nonzero"/><path fill="#2e7d32" d="M 536.71875 215.65625 C 534.867188 209.371094 533.199219 203.410156 531.726562 197.816406 C 540.15625 198.390625 551.40625 199.28125 559.746094 200.613281 C 568.8125 206.472656 580.871094 214.328125 589.761719 220.449219 C 590.894531 224.757812 592.183594 229.355469 593.605469 234.195312 C 586.128906 233.367188 576.128906 232.386719 568.609375 232.308594 C 559.078125 227.242188 546.355469 220.515625 536.71875 215.65625 " fill-opacity="1" fill-rule="nonzero"/><path fill="#2e7d32" d="M 463.972656 206.648438 C 461.730469 199.035156 459.707031 191.800781 457.917969 185.015625 C 466.996094 183.15625 479.132812 180.773438 488.324219 179.621094 C 498.5625 184.210938 512.195312 190.390625 522.300781 195.28125 C 523.820312 201.054688 525.539062 207.203125 527.445312 213.6875 C 519.027344 215.277344 507.8125 217.527344 499.550781 219.789062 C 488.910156 215.757812 474.703125 210.429688 463.972656 206.648438 " fill-opacity="1" fill-rule="nonzero"/><path fill="#2e7d32" d="M 307.511719 230.96875 C 304.871094 221.984375 302.484375 213.457031 300.375 205.457031 C 309.699219 198.886719 322.183594 190.195312 331.84375 184.132812 C 343.074219 185.347656 358.046875 187.058594 369.214844 188.753906 C 371.242188 196.441406 373.53125 204.628906 376.070312 213.257812 C 366.902344 219.421875 354.726562 227.730469 345.871094 234.324219 C 334.375 233.160156 319.042969 231.679688 307.511719 230.96875 " fill-opacity="1" fill-rule="nonzero"/><path fill="#2e7d32" d="M 232.019531 264.601562 C 229.40625 255.710938 227.042969 247.28125 224.957031 239.371094 C 233.34375 230.832031 244.605469 219.507812 253.410156 211.402344 C 264.347656 210.515625 278.953125 209.429688 289.925781 209.113281 C 292.039062 217.128906 294.425781 225.671875 297.078125 234.671875 C 288.125 242.851562 276.246094 253.832031 267.660156 262.394531 C 256.957031 262.898438 242.683594 263.628906 232.019531 264.601562 " fill-opacity="1" fill-rule="nonzero"/><path fill="#2e7d32" d="M 168.613281 308.429688 C 166.183594 300.167969 163.988281 292.320312 162.054688 284.960938 C 168.738281 275.230469 177.734375 262.292969 184.824219 252.855469 C 194.074219 250.238281 206.4375 246.847656 215.832031 244.816406 C 217.902344 252.679688 220.253906 261.058594 222.851562 269.894531 C 215.40625 279.304688 205.535156 291.894531 198.441406 301.574219 C 189.457031 303.4375 177.46875 306.007812 168.613281 308.429688 " fill-opacity="1" fill-rule="nonzero"/><path fill="#2e7d32" d="M 119.238281 359.761719 C 117.121094 352.570312 115.210938 345.753906 113.53125 339.351562 C 118.386719 328.949219 124.933594 315.113281 130.191406 304.90625 C 137.4375 300.742188 147.183594 295.289062 154.75 291.730469 C 156.660156 298.988281 158.824219 306.722656 161.21875 314.871094 C 155.460938 324.921875 147.832031 338.359375 142.398438 348.59375 C 135.351562 351.738281 125.980469 356.019531 119.238281 359.761719 " fill-opacity="1" fill-rule="nonzero"/><path fill="#2e7d32" d="M 85.335938 416.0625 C 83.65625 410.339844 82.136719 404.910156 80.792969 399.8125 C 83.671875 389.253906 87.582031 375.191406 90.867188 364.753906 C 95.890625 359.269531 102.703125 352.03125 108.242188 347.078125 C 109.890625 353.328125 111.75 359.988281 113.816406 367 C 109.863281 377.171875 104.636719 390.753906 101.003906 401.042969 C 96.132812 405.359375 89.6875 411.210938 85.335938 416.0625 " fill-opacity="1" fill-rule="nonzero"/><path fill="#2e7d32" d="M 68.363281 474.8125 C 67.207031 470.875 66.160156 467.148438 65.242188 463.644531 C 65.980469 453.417969 67.050781 439.785156 68.230469 429.601562 C 70.839844 423.0625 74.433594 414.371094 77.710938 408.152344 C 79 413.050781 80.464844 418.265625 82.082031 423.769531 C 80.058594 433.5625 77.414062 446.632812 75.75 456.492188 C 73.285156 461.882812 70.121094 469.152344 68.363281 474.8125 " fill-opacity="1" fill-rule="nonzero"/><path fill="#2e7d32" d="M 69.765625 533.484375 C 69.210938 531.597656 68.710938 529.808594 68.265625 528.125 C 66.703125 518.710938 64.710938 506.125 63.664062 496.640625 C 63.703125 489.308594 63.835938 479.515625 64.542969 472.222656 C 65.40625 475.496094 66.378906 478.984375 67.464844 482.660156 C 67.5 491.617188 67.613281 503.570312 68.105469 512.519531 C 68.371094 518.824219 68.859375 527.242188 69.765625 533.484375 " fill-opacity="1" fill-rule="nonzero"/><path fill="#2e7d32" d="M 72.253906 544.671875 L 70.816406 539.308594 L 70.136719 536.582031 C 70.515625 538.011719 70.941406 539.527344 71.410156 541.125 L 74.035156 550.851562 C 73.496094 548.996094 72.765625 546.53125 72.253906 544.671875 " fill-opacity="1" fill-rule="nonzero"/><path fill="#2e7d32" d="M 679.988281 302.914062 C 679.375 301.066406 678.796875 299.285156 678.261719 297.570312 C 682.972656 302.835938 689.15625 309.972656 693.296875 315.691406 L 701.898438 330.261719 L 694.675781 319.964844 C 690.363281 314.769531 683.410156 308.738281 679.988281 302.914062 " fill-opacity="1" fill-rule="nonzero"/><path fill="#2e7d32" d="M 636.039062 273.816406 C 634.628906 269.574219 633.308594 265.472656 632.078125 261.539062 C 638.3125 264.234375 646.605469 267.964844 652.484375 271.363281 C 658.707031 277.519531 666.976562 285.753906 672.96875 292.136719 C 673.601562 294.15625 674.28125 296.257812 675.003906 298.441406 C 670.1875 295.671875 663.679688 292.070312 658.507812 290.046875 C 651.808594 285.117188 641.007812 280.484375 636.039062 273.816406 " fill-opacity="1" fill-rule="nonzero"/><path fill="#2e7d32" d="M 579.230469 255.566406 C 577.117188 249.210938 575.136719 243.074219 573.304688 237.1875 C 580.679688 237.414062 590.542969 237.839844 597.859375 238.835938 C 606.03125 244.40625 616.90625 251.859375 624.929688 257.625 C 626.246094 261.828125 627.664062 266.222656 629.171875 270.761719 C 622.851562 270.40625 614.382812 270.070312 608.066406 270.476562 C 599.4375 265.957031 585.589844 262.933594 579.230469 255.566406 " fill-opacity="1" fill-rule="nonzero"/><path fill="#2e7d32" d="M 512.554688 248.457031 C 509.859375 240.363281 507.335938 232.535156 504.992188 225.027344 C 513.195312 222.90625 524.171875 220.167969 532.519531 218.726562 C 542.210938 223.496094 555.125 229.890625 564.71875 234.859375 C 566.625 240.980469 568.6875 247.371094 570.882812 253.972656 C 563.441406 255.980469 553.535156 258.789062 546.285156 261.414062 C 536.183594 257.480469 522.703125 252.257812 512.554688 248.457031 " fill-opacity="1" fill-rule="nonzero"/><path fill="#2e7d32" d="M 439.007812 252.796875 C 435.878906 243.390625 432.941406 234.300781 430.226562 225.582031 C 438.929688 221.21875 450.582031 215.46875 459.546875 211.65625 C 470.320312 215.382812 484.683594 220.394531 495.378906 224.359375 C 497.777344 232.050781 500.367188 240.070312 503.128906 248.371094 C 494.929688 252.601562 484.046875 258.34375 476.121094 263.054688 C 465.007812 259.910156 450.175781 255.75 439.007812 252.796875 " fill-opacity="1" fill-rule="nonzero"/><path fill="#2e7d32" d="M 361.570312 268.863281 C 358.183594 258.667969 355 248.8125 352.058594 239.359375 C 360.945312 232.875 372.851562 224.289062 382.046875 218.242188 C 393.453125 220.652344 408.652344 223.914062 419.980469 226.640625 C 422.742188 235.484375 425.714844 244.707031 428.890625 254.246094 C 420.289062 260.507812 408.863281 268.929688 400.535156 275.558594 C 388.859375 273.449219 373.289062 270.691406 361.570312 268.863281 " fill-opacity="1" fill-rule="nonzero"/><path fill="#2e7d32" d="M 283.40625 296.886719 C 279.949219 286.492188 276.703125 276.445312 273.703125 266.816406 C 282.414062 258.386719 294.074219 247.191406 303.113281 239.113281 C 314.671875 239.894531 330.070312 241.003906 341.585938 242.214844 C 344.550781 251.71875 347.753906 261.636719 351.160156 271.890625 C 342.460938 279.960938 330.902344 290.765625 322.464844 299.105469 C 310.753906 298.324219 295.132812 297.328125 283.40625 296.886719 " fill-opacity="1" fill-rule="nonzero"/><path fill="#2e7d32" d="M 155.117188 377.242188 C 152.136719 368.273438 149.339844 359.605469 146.753906 351.300781 C 152.363281 341.152344 159.902344 327.644531 165.832031 317.679688 C 174.65625 315.472656 186.453125 312.640625 195.394531 310.960938 C 198.242188 320.105469 201.320312 329.632812 204.59375 339.492188 C 198.171875 349.289062 189.640625 362.382812 183.460938 372.335938 C 174.929688 373.644531 163.558594 375.445312 155.117188 377.242188 " fill-opacity="1" fill-rule="nonzero"/><path fill="#2e7d32" d="M 111.230469 424.273438 C 108.742188 416.789062 106.40625 409.558594 104.242188 402.621094 C 108.082031 392.417969 113.253906 378.832031 117.398438 368.75 C 124.152344 365.277344 133.21875 360.746094 140.242188 357.859375 C 142.785156 366.015625 145.523438 374.511719 148.449219 383.308594 C 143.632812 393.082031 137.234375 406.128906 132.640625 416.007812 C 126.148438 418.292969 117.496094 421.414062 111.230469 424.273438 " fill-opacity="1" fill-rule="nonzero"/><path fill="#2e7d32" d="M 82.9375 472.996094 C 81.082031 467.40625 79.335938 462.003906 77.722656 456.824219 C 79.628906 447.054688 82.238281 434.039062 84.480469 424.335938 C 88.882812 419.761719 94.867188 413.734375 99.777344 409.699219 C 101.871094 416.417969 104.128906 423.429688 106.546875 430.683594 C 103.453125 439.945312 99.359375 452.296875 96.507812 461.632812 C 92.277344 464.84375 86.679688 469.226562 82.9375 472.996094 " fill-opacity="1" fill-rule="nonzero"/><path fill="#2e7d32" d="M 71.808594 521.265625 C 70.691406 517.902344 69.640625 514.652344 68.671875 511.535156 C 68.476562 502.671875 68.308594 490.835938 68.535156 481.96875 C 70.375 476.519531 72.933594 469.261719 75.484375 464.105469 C 77.019531 469.027344 78.675781 474.164062 80.441406 479.472656 C 79.207031 487.773438 77.589844 498.84375 76.667969 507.183594 C 74.949219 511.3125 72.789062 516.90625 71.808594 521.265625 " fill-opacity="1" fill-rule="nonzero"/><path fill="#2e7d32" d="M 77.457031 561.679688 C 76.792969 559.652344 75.914062 556.949219 75.269531 554.917969 L 74.746094 553.214844 L 71.039062 539.152344 C 70.164062 533.046875 69.070312 524.875 68.859375 518.710938 C 69.742188 521.535156 70.691406 524.476562 71.707031 527.527344 C 72.460938 534.46875 73.511719 543.734375 74.730469 550.613281 C 75.53125 553.933594 76.390625 558.429688 77.457031 561.679688 " fill-opacity="1" fill-rule="nonzero"/><path fill="#2e7d32" d="M 697.578125 324.890625 C 697.363281 324.300781 697.160156 323.726562 696.964844 323.164062 L 701.898438 330.261719 L 697.578125 324.890625 " fill-opacity="1" fill-rule="nonzero"/><path fill="#2e7d32" d="M 666.199219 304.226562 C 664.988281 300.878906 663.835938 297.605469 662.730469 294.417969 C 667.582031 296.605469 674.027344 299.671875 678.488281 302.578125 C 683.03125 307.363281 689.070312 313.765625 693.371094 318.773438 C 693.6875 319.695312 694.023438 320.636719 694.371094 321.601562 C 691.105469 319.472656 686.648438 316.699219 683 315.324219 C 677.988281 311.953125 669.96875 308.945312 666.199219 304.226562 " fill-opacity="1" fill-rule="nonzero"/><path fill="#2e7d32" d="M 619.960938 292.902344 C 617.855469 287.074219 615.828125 281.363281 613.910156 275.804688 C 620.042969 275.558594 628.257812 275.34375 634.375 275.871094 C 641.203125 280.46875 650.296875 286.617188 657.023438 291.359375 C 658.238281 294.878906 659.523438 298.496094 660.855469 302.1875 C 655.867188 302.441406 649.203125 302.941406 644.308594 303.925781 C 637.011719 300.609375 627.277344 296.191406 619.960938 292.902344 " fill-opacity="1" fill-rule="nonzero"/><path fill="#2e7d32" d="M 561.699219 290.789062 C 558.820312 282.828125 556.054688 275.035156 553.429688 267.441406 C 560.578125 264.941406 570.148438 261.679688 577.492188 259.8125 C 586.207031 264.0625 597.828125 269.742188 606.488281 274.101562 C 608.515625 279.949219 610.636719 285.960938 612.859375 292.09375 C 606.574219 294.664062 598.226562 298.210938 592.183594 301.308594 C 583.042969 298.144531 570.851562 293.929688 561.699219 290.789062 " fill-opacity="1" fill-rule="nonzero"/><path fill="#2e7d32" d="M 420.492188 313.664062 C 416.578125 302.839844 412.828125 292.246094 409.261719 281.921875 C 417.570312 275.394531 428.703125 266.734375 437.292969 260.574219 C 448.488281 263.488281 463.410156 267.410156 474.5625 270.492188 C 477.808594 279.875 481.21875 289.515625 484.777344 299.351562 C 476.90625 305.863281 466.449219 314.601562 458.824219 321.398438 C 447.332031 319.035156 432.011719 315.910156 420.492188 313.664062 " fill-opacity="1" fill-rule="nonzero"/><path fill="#2e7d32" d="M 267.34375 370.84375 C 263.273438 359.589844 259.367188 348.5625 255.652344 337.832031 C 263.433594 328.382812 273.863281 315.824219 281.945312 306.628906 C 293.671875 307.183594 309.3125 307.988281 321.023438 308.867188 C 324.785156 319.742188 328.742188 330.910156 332.867188 342.316406 C 324.605469 351.570312 313.621094 363.9375 305.578125 373.382812 C 294.113281 372.558594 278.824219 371.480469 267.34375 370.84375 " fill-opacity="1" fill-rule="nonzero"/><path fill="#2e7d32" d="M 201.480469 407.261719 C 197.691406 396.789062 194.058594 386.53125 190.605469 376.546875 C 196.964844 366.675781 205.484375 353.535156 212.085938 343.828125 C 222.359375 343.355469 236.0625 342.792969 246.34375 342.679688 C 250.035156 353.347656 253.917969 364.3125 257.964844 375.5 C 250.910156 385.082031 241.53125 397.890625 234.664062 407.605469 C 224.710938 407.402344 211.433594 407.171875 201.480469 407.261719 " fill-opacity="1" fill-rule="nonzero"/><path fill="#2e7d32" d="M 147.8125 445.71875 C 144.519531 436.609375 141.363281 427.6875 138.359375 419.003906 C 143.164062 409.210938 149.613281 396.175781 154.636719 386.488281 C 163.089844 384.984375 174.375 383.066406 182.894531 382.011719 C 186.300781 391.851562 189.882812 401.964844 193.617188 412.285156 C 187.945312 421.679688 180.410156 434.210938 174.882812 443.683594 C 166.753906 444.160156 155.910156 444.84375 147.8125 445.71875 " fill-opacity="1" fill-rule="nonzero"/><path fill="#2e7d32" d="M 84 521.835938 C 82.199219 516.855469 80.46875 511.972656 78.824219 507.226562 C 80.058594 498.984375 81.761719 488.011719 83.277344 479.820312 C 87.148438 476.410156 92.414062 471.953125 96.714844 469.113281 C 99.015625 475.761719 101.4375 482.589844 103.953125 489.558594 C 101.441406 497.183594 98.105469 507.355469 95.742188 515.023438 C 92.113281 516.867188 87.261719 519.402344 84 521.835938 " fill-opacity="1" fill-rule="nonzero"/><path fill="#2e7d32" d="M 77.269531 556.050781 C 76.40625 553.664062 75.574219 551.320312 74.789062 549.039062 C 73.964844 542.230469 72.949219 533.140625 72.550781 526.292969 C 73.699219 522.207031 75.347656 516.742188 77.234375 512.945312 C 78.773438 517.386719 80.386719 521.945312 82.070312 526.597656 C 81.332031 532.734375 80.371094 540.921875 79.910156 547.085938 C 78.847656 549.679688 77.570312 553.265625 77.269531 556.050781 " fill-opacity="1" fill-rule="nonzero"/><path fill="#2e7d32" d="M 79.859375 568.605469 C 79.292969 566.996094 78.539062 564.851562 77.988281 563.246094 L 75.667969 554.316406 C 76.335938 556.25 77.042969 558.238281 77.773438 560.265625 C 78.609375 563.382812 79.511719 567.605469 80.605469 570.640625 L 79.859375 568.605469 " fill-opacity="1" fill-rule="nonzero"/><path fill="#2e7d32" d="M 687.570312 323.886719 C 686.742188 321.753906 685.945312 319.644531 685.167969 317.566406 C 688.523438 319.0625 692.980469 321.246094 695.914062 323.460938 L 701.898438 330.261719 L 697.832031 328.523438 C 694.75 327.136719 689.882812 326.34375 687.570312 323.886719 " fill-opacity="1" fill-rule="nonzero"/><path fill="#2e7d32" d="M 653.441406 321.972656 C 651.550781 317.074219 649.714844 312.222656 647.933594 307.449219 C 652.695312 306.566406 659.085938 305.476562 663.925781 305.339844 C 669.09375 308.429688 675.988281 312.546875 681.113281 315.714844 C 682.023438 318.167969 682.972656 320.660156 683.945312 323.175781 C 680.382812 324.238281 675.648438 325.816406 672.3125 327.460938 C 666.644531 325.855469 659.082031 323.6875 653.441406 321.972656 " fill-opacity="1" fill-rule="nonzero"/><path fill="#2e7d32" d="M 605.292969 327.664062 C 602.460938 320.332031 599.707031 313.070312 597.042969 305.917969 C 603.011719 302.878906 611.015625 298.875 617.230469 296.371094 C 624.628906 299.488281 634.503906 303.636719 641.902344 306.757812 C 643.804688 311.867188 645.777344 317.058594 647.800781 322.304688 C 642.792969 325.617188 636.167969 330.132812 631.429688 333.828125 C 623.582031 332.027344 613.117188 329.589844 605.292969 327.664062 " fill-opacity="1" fill-rule="nonzero"/><path fill="#2e7d32" d="M 545.78125 340.390625 C 542.171875 331.039062 538.65625 321.78125 535.265625 312.667969 C 542.1875 307.644531 551.457031 300.996094 558.648438 296.367188 C 567.882812 299.359375 580.1875 303.351562 589.40625 306.34375 C 592.179688 313.78125 595.039062 321.339844 597.988281 328.964844 C 591.847656 334.246094 583.710938 341.351562 577.820312 346.902344 C 568.203125 344.984375 555.382812 342.402344 545.78125 340.390625 " fill-opacity="1" fill-rule="nonzero"/><path fill="#2e7d32" d="M 477.597656 359.5625 C 473.402344 348.703125 469.324219 337.949219 465.382812 327.363281 C 472.984375 320.59375 483.160156 311.609375 491.007812 305.132812 C 501.628906 307.832031 515.789062 311.433594 526.394531 314.164062 C 529.878906 323.503906 533.476562 332.996094 537.175781 342.574219 C 530.175781 349.519531 520.882812 358.828125 514.085938 365.976562 C 503.140625 364.0625 488.539062 361.507812 477.597656 359.5625 " fill-opacity="1" fill-rule="nonzero"/><path fill="#2e7d32" d="M 326.042969 414.859375 C 321.414062 402.863281 316.90625 390.980469 312.550781 379.277344 C 320.675781 369.90625 331.539062 357.433594 339.839844 348.21875 C 351.875 349.652344 367.921875 351.589844 379.929688 353.21875 C 384.226562 364.761719 388.675781 376.492188 393.246094 388.339844 C 385.277344 397.578125 374.660156 409.914062 366.777344 419.230469 C 354.558594 417.894531 338.273438 416.121094 326.042969 414.859375 " fill-opacity="1" fill-rule="nonzero"/><path fill="#2e7d32" d="M 191.90625 479.019531 C 187.910156 468.667969 184.023438 458.414062 180.265625 448.324219 C 185.925781 438.925781 193.503906 426.40625 199.292969 417.085938 C 209.183594 417.164062 222.367188 417.320312 232.25 417.664062 C 236.382812 428.765625 240.660156 440.042969 245.054688 451.425781 C 238.667969 460.523438 230.164062 472.65625 223.835938 481.792969 C 214.265625 480.894531 201.496094 479.726562 191.90625 479.019531 " fill-opacity="1" fill-rule="nonzero"/><path fill="#2e7d32" d="M 141.933594 509.21875 C 138.597656 500.578125 135.351562 492.019531 132.214844 483.597656 C 136.414062 474.910156 142.03125 463.335938 146.332031 454.695312 C 154.359375 454.070312 165.074219 453.304688 173.121094 453.042969 C 176.804688 462.941406 180.621094 473 184.539062 483.15625 C 179.441406 491.402344 172.640625 502.390625 167.550781 510.640625 C 159.871094 510.125 149.625 509.460938 141.933594 509.21875 " fill-opacity="1" fill-rule="nonzero"/><path fill="#2e7d32" d="M 105.875 536.449219 C 103.382812 529.996094 100.957031 523.605469 98.617188 517.316406 C 101.175781 509.753906 104.621094 499.683594 107.316406 492.167969 C 113.148438 490.800781 120.960938 489.089844 126.886719 488.195312 C 129.925781 496.359375 133.074219 504.65625 136.308594 513.03125 C 132.636719 520.015625 127.738281 529.335938 124.054688 536.320312 C 118.601562 536.238281 111.324219 536.164062 105.875 536.449219 " fill-opacity="1" fill-rule="nonzero"/><path fill="#2e7d32" d="M 85.605469 559.445312 C 84.109375 555.5625 82.652344 551.71875 81.238281 547.929688 C 81.972656 541.886719 83.007812 533.835938 83.972656 527.824219 C 87.261719 525.746094 91.75 523.085938 95.335938 521.589844 C 97.566406 527.566406 99.867188 533.640625 102.234375 539.773438 C 100.140625 545.136719 97.355469 552.292969 95.296875 557.671875 C 92.363281 558.046875 88.425781 558.550781 85.605469 559.445312 " fill-opacity="1" fill-rule="nonzero"/><path fill="#2e7d32" d="M 82.726562 576.285156 L 81.8125 573.890625 L 81.035156 571.804688 C 80.066406 568.28125 78.695312 563.589844 78.050781 559.992188 C 78.441406 557.441406 79.078125 553.976562 80.25 551.679688 C 81.527344 555.109375 82.847656 558.59375 84.203125 562.109375 C 83.820312 565.535156 83.316406 570.113281 83.191406 573.558594 C 82.90625 574.332031 82.507812 575.480469 82.726562 576.285156 " fill-opacity="1" fill-rule="nonzero"/><path fill="#2e7d32" d="M 700.054688 331.292969 C 699.796875 330.667969 699.542969 330.039062 699.292969 329.410156 L 701.898438 330.261719 L 700.054688 331.292969 " fill-opacity="1" fill-rule="nonzero"/><path fill="#2e7d32" d="M 680.285156 340.671875 C 678.816406 337.09375 677.378906 333.511719 675.96875 329.957031 C 679.125 328.378906 683.394531 326.285156 686.796875 325.316406 C 689.90625 326.457031 694.050781 327.988281 697.191406 329.035156 C 697.601562 330.0625 698.015625 331.097656 698.441406 332.132812 C 696.546875 334.1875 694.085938 337.011719 692.410156 339.25 C 688.792969 339.847656 683.945312 340.507812 680.285156 340.671875 " fill-opacity="1" fill-rule="nonzero"/><path fill="#2e7d32" d="M 595.226562 377.5625 C 591.742188 369.042969 588.308594 360.527344 584.949219 352.054688 C 590.738281 346.496094 598.488281 339.117188 604.527344 333.832031 C 612.390625 335.523438 622.878906 337.765625 630.773438 339.300781 C 633.359375 345.835938 636.007812 352.398438 638.695312 358.964844 C 633.863281 364.980469 627.453125 373.03125 622.796875 379.1875 C 614.523438 378.796875 603.484375 378.222656 595.226562 377.5625 " fill-opacity="1" fill-rule="nonzero"/><path fill="#2e7d32" d="M 534.921875 402.972656 C 530.6875 392.640625 526.53125 382.3125 522.457031 372.039062 C 529.171875 364.894531 538.144531 355.386719 545.0625 348.433594 C 554.699219 350.257812 567.546875 352.679688 577.207031 354.394531 C 580.664062 363.136719 584.207031 371.921875 587.808594 380.710938 C 581.878906 388.230469 574 398.277344 568.214844 405.902344 C 558.222656 405.09375 544.898438 403.980469 534.921875 402.972656 " fill-opacity="1" fill-rule="nonzero"/><path fill="#2e7d32" d="M 245.585938 521.398438 C 240.992188 510.195312 236.476562 498.988281 232.0625 487.84375 C 238.519531 478.75 247.132812 466.636719 253.636719 457.582031 C 264.738281 458.761719 279.550781 460.34375 290.648438 461.605469 C 295.363281 473.511719 300.1875 485.488281 305.09375 497.464844 C 298.085938 506.410156 288.742188 518.34375 281.71875 527.273438 C 270.878906 525.511719 256.421875 523.15625 245.585938 521.398438 " fill-opacity="1" fill-rule="nonzero"/><path fill="#2e7d32" d="M 138.625 563.503906 C 135.445312 555.75 132.320312 547.988281 129.261719 540.273438 C 133.128906 533.371094 138.273438 524.164062 142.117188 517.25 C 149.785156 517.773438 160.011719 518.515625 167.664062 519.269531 C 171.417969 528.730469 175.242188 538.242188 179.140625 547.757812 C 174.355469 554.214844 167.957031 562.808594 163.035156 569.164062 C 155.722656 567.433594 145.964844 565.128906 138.625 563.503906 " fill-opacity="1" fill-rule="nonzero"/><path fill="#2e7d32" d="M 104.988281 576.148438 C 102.804688 570.820312 100.652344 565.488281 98.550781 560.183594 C 100.855469 554.914062 103.914062 547.886719 106.210938 542.613281 C 111.644531 542.671875 118.894531 542.835938 124.316406 543.203125 C 127.253906 550.617188 130.261719 558.078125 133.316406 565.535156 C 129.894531 570.242188 125.3125 576.511719 121.710938 581.085938 C 116.703125 579.570312 110.027344 577.554688 104.988281 576.148438 " fill-opacity="1" fill-rule="nonzero"/><path fill="#2e7d32" d="M 87.339844 582.121094 C 86.296875 579.5625 85.261719 577 84.253906 574.457031 C 84.738281 571.121094 85.445312 566.683594 86.097656 563.382812 C 88.949219 562.929688 92.785156 562.464844 95.667969 562.425781 C 97.628906 567.378906 99.640625 572.359375 101.683594 577.347656 C 99.8125 580.015625 97.316406 583.582031 95.253906 586.097656 C 92.875 584.914062 89.140625 584.074219 87.339844 582.121094 " fill-opacity="1" fill-rule="nonzero"/><path fill="#2e7d32" d="M 85.59375 583.441406 C 84.316406 580.320312 84.316406 580.320312 83.691406 578.746094 L 83.179688 577.441406 C 83.273438 577 83.394531 576.417969 83.492188 575.980469 L 83.699219 575.871094 C 84.550781 578.023438 85.421875 580.195312 86.3125 582.363281 C 86.140625 582.785156 86.113281 583.523438 85.71875 583.75 L 85.59375 583.441406 " fill-opacity="1" fill-rule="nonzero"/><path fill="#2e7d32" d="M 696.769531 346.367188 C 695.851562 344.234375 694.929688 342.074219 694.015625 339.910156 C 695.5625 337.597656 697.617188 334.5 699.375 332.34375 L 701.898438 330.261719 L 701.574219 337.507812 C 700.402344 340.300781 698.679688 344.019531 696.769531 346.367188 " fill-opacity="1" fill-rule="nonzero"/><path fill="#2e7d32" d="M 674.582031 373.585938 C 672.453125 368.683594 670.34375 363.730469 668.257812 358.757812 C 671.429688 354.339844 675.675781 348.460938 679.050781 344.191406 C 682.824219 343.714844 687.878906 343.058594 691.554688 342.074219 C 692.625 344.621094 693.710938 347.164062 694.796875 349.6875 C 692.960938 354.808594 690.515625 361.644531 688.675781 366.769531 C 684.558594 369.027344 678.96875 371.914062 674.582031 373.585938 " fill-opacity="1" fill-rule="nonzero"/><path fill="#2e7d32" d="M 636.941406 404.945312 C 633.753906 397.597656 630.597656 390.1875 627.476562 382.742188 C 632.023438 376.523438 638.113281 368.246094 642.839844 362.15625 C 649.089844 362.136719 657.425781 362.078125 663.65625 361.675781 C 665.886719 366.996094 668.144531 372.292969 670.425781 377.542969 C 667.015625 384.386719 662.492188 393.511719 659.144531 400.382812 C 652.523438 401.925781 643.65625 403.882812 636.941406 404.945312 " fill-opacity="1" fill-rule="nonzero"/><path fill="#2e7d32" d="M 303.539062 568.34375 C 298.542969 556.828125 293.589844 545.203125 288.695312 533.527344 C 295.773438 524.605469 305.210938 512.710938 312.273438 503.78125 C 324.238281 505.394531 340.195312 507.527344 352.175781 509.050781 C 357.269531 521.207031 362.429688 533.304688 367.628906 545.296875 C 360.175781 554.273438 350.230469 566.226562 342.695312 575.128906 C 330.941406 573.148438 315.269531 570.480469 303.539062 568.34375 " fill-opacity="1" fill-rule="nonzero"/><path fill="#2e7d32" d="M 236.578125 588.109375 C 232.082031 577.738281 227.625 567.277344 223.222656 556.773438 C 229.34375 548.984375 237.5 538.589844 243.542969 530.734375 C 254.328125 532.59375 268.707031 535.074219 279.492188 536.929688 C 284.335938 548.484375 289.242188 559.992188 294.183594 571.390625 C 287.496094 579.054688 278.546875 589.25 271.707031 596.78125 C 261.167969 594.207031 247.105469 590.761719 236.578125 588.109375 " fill-opacity="1" fill-rule="nonzero"/><path fill="#2e7d32" d="M 179.21875 600.261719 C 175.464844 591.605469 171.746094 582.875 168.070312 574.105469 C 173.070312 567.800781 179.714844 559.371094 184.59375 552.960938 C 193.792969 554.882812 206.066406 557.453125 215.257812 559.425781 C 219.578125 569.730469 223.957031 579.996094 228.363281 590.167969 C 222.609375 596.203125 214.90625 604.234375 208.945312 610.066406 C 200.019531 607.140625 188.125 603.234375 179.21875 600.261719 " fill-opacity="1" fill-rule="nonzero"/><path fill="#2e7d32" d="M 133.726562 604.460938 C 130.921875 597.992188 128.140625 591.472656 125.394531 584.925781 C 129.097656 580.414062 133.984375 574.359375 137.507812 569.714844 C 144.753906 571.546875 154.410156 574.015625 161.640625 575.933594 C 165.207031 584.429688 168.8125 592.894531 172.449219 601.28125 C 167.820312 605.433594 161.613281 610.941406 156.722656 614.777344 C 149.8125 611.699219 139.023438 609.855469 133.726562 604.460938 " fill-opacity="1" fill-rule="nonzero"/><path fill="#2e7d32" d="M 102.367188 600.367188 C 100.675781 596.472656 99.003906 592.550781 97.355469 588.609375 C 99.542969 586.167969 102.398438 582.855469 104.382812 580.246094 C 109.316406 581.898438 115.878906 584.121094 120.785156 585.835938 C 123.398438 592.058594 126.039062 598.257812 128.703125 604.402344 C 125.398438 606.457031 120.953125 609.171875 117.378906 610.714844 C 112.839844 607.652344 105.789062 604.628906 102.367188 600.367188 " fill-opacity="1" fill-rule="nonzero"/><path fill="#2e7d32" d="M 87.957031 589.015625 L 87.617188 588.234375 C 87.175781 587.191406 86.582031 585.808594 86.144531 584.769531 C 86.558594 584.585938 87.066406 584.191406 87.324219 583.8125 C 89.5625 585.261719 92.558594 587.160156 94.84375 588.53125 C 96.34375 592.097656 97.855469 595.65625 99.386719 599.179688 C 97.492188 599.007812 94.871094 598.621094 93.226562 597.660156 C 91.578125 595.105469 89.21875 591.78125 87.957031 589.015625 " fill-opacity="1" fill-rule="nonzero"/><path fill="#2e7d32" d="M 702.835938 337.707031 C 702.566406 337.121094 702.289062 336.515625 702.019531 335.90625 L 701.898438 330.261719 L 702.835938 337.707031 " fill-opacity="1" fill-rule="nonzero"/><path fill="#2e7d32" d="M 696.121094 377.144531 C 694.574219 373.796875 693.027344 370.378906 691.484375 366.917969 C 693.078125 361.679688 695.203125 354.695312 696.761719 349.445312 C 698.496094 346.675781 700.714844 342.84375 701.675781 339.71875 C 702.117188 340.714844 702.566406 341.699219 703.011719 342.671875 C 703.039062 348.691406 703.011719 356.722656 702.78125 362.738281 C 701.054688 367.171875 698.609375 373.085938 696.121094 377.144531 " fill-opacity="1" fill-rule="nonzero"/><path fill="#2e7d32" d="M 128.582031 630.503906 C 126.28125 625.515625 123.976562 620.425781 121.679688 615.269531 C 125.382812 613.644531 130.277344 611.34375 133.71875 609.230469 C 140.59375 612.566406 149.753906 617.003906 156.664062 620.257812 C 159.875 627.476562 163.101562 634.597656 166.324219 641.574219 C 161.601562 643.113281 155.253906 645.089844 150.359375 645.941406 C 143.777344 641.375 133.640625 636.714844 128.582031 630.503906 " fill-opacity="1" fill-rule="nonzero"/><path fill="#2e7d32" d="M 98.664062 608.203125 C 97.558594 605.808594 96.457031 603.367188 95.351562 600.886719 C 97.355469 601.71875 100.175781 602.699219 102.339844 602.722656 C 106.777344 606.132812 112.722656 610.644531 117.277344 613.894531 C 119.421875 618.710938 121.578125 623.472656 123.726562 628.128906 C 120.179688 627.289062 115.433594 626.011719 112.167969 624.398438 C 108.011719 619.628906 101.925781 613.625 98.664062 608.203125 " fill-opacity="1" fill-rule="nonzero"/><path fill="#2e7d32" d="M 89.902344 593.398438 C 89.480469 592.453125 88.921875 591.207031 88.503906 590.265625 C 89.863281 592.679688 91.546875 595.988281 93.101562 598.28125 C 94.039062 600.382812 94.980469 602.453125 95.917969 604.484375 L 91.738281 597.402344 C 91.183594 596.199219 90.441406 594.597656 89.902344 593.398438 " fill-opacity="1" fill-rule="nonzero"/><path fill="#2e7d32" d="M 706.410156 367.242188 C 705.546875 365.507812 704.652344 363.664062 703.722656 361.710938 L 703.703125 361.664062 C 703.660156 355.507812 703.578125 347.304688 703.226562 341.160156 L 701.898438 330.261719 L 705.382812 345.609375 C 705.949219 352.082031 706.617188 360.746094 706.410156 367.242188 " fill-opacity="1" fill-rule="nonzero"/><path fill="#2e7d32" d="M 705.4375 342.945312 C 705.222656 342.550781 704.996094 342.125 704.757812 341.664062 L 701.898438 330.261719 L 705.4375 342.945312 " fill-opacity="1" fill-rule="nonzero"/><g clip-path="url(#c475a7913b)"><path fill="#2e7d32" d="M 707.261719 345.839844 C 707.128906 345.683594 706.984375 345.488281 706.828125 345.261719 L 701.898438 330.261719 L 707.261719 345.839844 " fill-opacity="1" fill-rule="nonzero"/></g></svg>